 <svg
                xmlns="http://www.w3.org/2000/svg"
                fill="currentColor"
                viewBox="0 0 595.3 841.9"
                height={24}
                width={24}
                className="recenter__icon"
              >
                <path
                  d="M446,442.3c11.3-0.8,22.9-1.6,34.4-2.7c2-0.2,4.1-1.9,5.5-3.5c29.5-31.9,59-63.9,88.5-95.9c1.8-1.9,3.5-4,5.2-6.1
		c3.8,4.6,3.9,8.5-0.1,14.1c-9.1,13-18.3,25.8-27.7,38.6c-13.1,17.9-26.4,35.6-39.6,53.4c-0.9,1.3-1.5,3.5-1.1,4.9
		c12,41.5,2.5,79-21.1,113.9c-8.6,12.7-17.5,25.1-26.4,37.5c-12.7,17.8-24.2,36.3-31.7,57c-0.3,0.7-0.7,1.4-1.1,2.3
		c-6.8-3.9-13.4-7.8-20-11.5c-20.3-11.6-41.7-16.2-64.8-10.2c-11.3,2.9-22.9,4.4-34.2,7.4c-52,13.4-104.9,18-158.5,17.1
		c-28-0.4-56-0.5-84-0.6c-3.7,0-5.5-1.3-7.2-4.6c-13.8-28-23.9-57.1-27.1-88.3c-0.2-2.1-0.3-4.3-0.5-6.9c9.1-1.4,17.9-3,26.8-4.2
		c25.2-3.4,50.5-6.7,75.7-9.7c7.9-1,8.8,0.1,11.3,7.9c5.1,16,6.9,17.5,23.4,16.4c28.2-1.9,54.8-10.3,81-20.5
		c35.3-13.8,66.9-34.3,97.7-56c21.4-15.1,42.7-30.3,65.8-39.7c3.1-23.5,1.2-45.7-9.2-66.6c4.3,15.9,5.2,32,4.5,48.3
		c-0.2,4.3-0.8,8.6-1.1,12.9c-0.2,2.5-1,3.7-3.9,4c-15.1,1.4-30.1,3-45.7,4.7c4.4-26.5-0.1-52.2-13.7-76.6c2.3,9.9,4.9,19.4,6.6,29
		c2.7,15.3,3.7,30.8,0.7,46.2c-0.3,1.6-1.6,3.9-2.9,4.3c-19.7,6.5-39.5,12.7-59.5,19.1c5.8-17.5,7.9-36,6.2-54.9
		c-1.7-19-8.1-36.4-17.7-53.8c2.7,10.1,5.7,19.2,7.4,28.5c5.2,27.3,6.1,54.5-4.3,81.1c-1.3,3.4-3.2,5.4-6.5,6.9
		c-24.8,11.6-48.4,25.2-69.8,42.4c-0.3,0.3-0.8,0.4-0.9,0.4c6.1-15.9,12.3-32,19.1-49.7c-15.5,0-29.5,0-42.5,0
		c0,9.8-0.1,19.8,0,29.8c0.1,8,0.7,16,1,24c0.1,1.8-0.2,3.7-0.7,5.4c-1.1,4.1-3.7,6.8-8,7.2c-4.3,0.4-7.5-1.8-9.1-5.7
		c-1-2.5-1.5-5.5-1.6-8.2c-0.1-15.3-0.1-30.7-0.1-46c0-1.8,0-3.6,0-5.7c-5.2,0.8-9.7,1.5-15,2.4c6.2-32,1.2-61.8-14.8-89.8
		c0.1,0.8,0.3,1.6,0.5,2.4c0.2,0.8,0.5,1.6,0.8,2.4c8.3,27.1,12.1,54.6,6.7,82.8c-0.6,3.2-1.9,4.8-5.1,5.7
		c-16.8,4.5-32.7,11.2-47.9,19.8c-0.9,0.5-1.7,1-2.7,1.4c-4.2,1.5-5.8,0.1-5-4.4c1.5-9.2,3-18.4,4.5-27.6c5.6-34.8-1-68-13.3-100.3
		c-4-10.6-8.9-20.8-13.5-31.1c-2.4-5.3-1.3-7.3,4.4-6.8c36.3,3.2,72.7,6.5,109,9.7c5.5,0.5,10.9,1.4,16.4,1.4
		c4.9,0,7.9,2.2,10.9,5.7c16.2,18.6,24.6,40.9,30,64.5c0.2,1.1,0.7,2.1,1.2,3.1c0.1-16.1-4-31.3-8.9-46.3
		c-5.5-16.9-12-33.5-18.4-50.1c-2.1-5.4-2.3-9.5,2-14.5c14.5-16.7,21.6-37,25-58.5c1.5-9.5,2.2-19.2,2.1-28.8
		c-0.2-17.7-4.1-34.3-18-48.7c11.5,2.5,21.5,4.6,31.5,6.8c38.2,8.4,76.4,16.8,114.6,25.4c4.6,1,9.2,3.2,13,5.9
		c24.1,17.7,38.3,42.1,46.9,70.2c4,12.8,5.8,26,5.1,39.5c-0.1,1.3-0.2,2.7-0.3,4c0,0.3-0.3,0.5-1.5,2.4c-0.2-1.2-0.1-2-0.5-2.5
		c-10.5-15.4-24.9-25.8-42.4-31.8c-4.4-1.5-5.8-3.7-6.2-8c-1.5-17.2-7-33.1-15-48.3c-0.4-0.8-1-1.5-1.9-2.2c6,17.6,9.4,35.5,10.2,53
		c-18-1-35.7-2.1-54.1-3.1c-0.1-21.8-6.4-43-17.5-63.1c2.6,10.8,5.6,21.3,7.5,32c1.7,9.6,1.9,19.5,2.9,29.3c0.3,3.2-0.8,4.4-4,4.6
		c-3.6,0.2-7.2,1.1-10.3,1.7c0,10.2,0,19.8,0,29.8c11,1.1,21.4,2.2,31.8,3.2c28.8,2.8,57.7,5.5,86.6,8.4c8.6,0.9,15.5,5.6,20.7,11.9
		c4.7,5.7,9.2,12,12.1,18.8c9.2,21.9,11,44.8,5.9,68.1C449.5,434,447.4,438.4,446,442.3z M486.4,481.5c0-0.5,0-1,0-1.6
		c-4.8-0.8-9.7-2-14.5-2.5c-20.5-1.8-39.2,4.5-57.2,13.2c-24.3,11.7-45.8,27.7-67.3,43.8c-4.2,3.1-8.4,6.3-12.6,9.4
		c1.9,0.2,3.5-0.2,4.9-1c14.8-8.6,30.1-16.4,44.4-25.9C415.1,496.2,448.5,482.4,486.4,481.5z M276.9,291.7
		c-17.6,6.6-34.1,12.7-50.6,18.9c0.2,0.6,0.3,1.3,0.5,1.9c16.6,1.6,33.2,3.3,50.2,4.9C276.9,309.2,276.9,301.5,276.9,291.7z
		 M305.4,557.6c0.1-3.9-3.2-7.3-7.2-7.4c-4.4-0.2-7.7,3-7.7,7.3c0,4.1,3,7.4,7.1,7.5C301.6,565.2,305.3,561.7,305.4,557.6z
		 M252.3,567.2c-3.7-0.1-6.7,2.8-6.7,6.5c0,3.6,3.1,6.8,6.6,6.5c3.8-0.3,6.1-2.4,6.4-6.3C258.9,570.3,256.1,567.3,252.3,567.2z
		 M94.7,577.5c0-0.8,0.1-1.6,0.1-2.4c-2.1-1.5-4-3.9-6.3-4.4c-3.4-0.8-5.6,1.5-5.7,5.1c-0.1,3.6,2.2,6.1,5.3,5.9
		C90.3,581.5,92.5,579,94.7,577.5z M116.3,566.5c-0.8-0.1-1.6-0.1-2.4-0.2c-1.6,2.1-4.2,3.9-4.7,6.2c-0.7,3.3,1.8,6.2,5.2,5.6
		c2.1-0.3,5.2-2.9,5.5-4.9C120.1,571.2,117.6,568.7,116.3,566.5z M62.6,573.8c-0.8,0-1.6,0-2.4,0c-1.5,2.2-3.9,4.3-4.2,6.7
		c-0.4,3.3,2.3,5.5,5.8,5.3c3.3-0.1,5.7-2.4,5.1-5.5C66.5,578,64.1,576,62.6,573.8z M217.9,583.2c-1.6-1-3.7-3.3-6.1-3.5
		c-3.4-0.3-5.4,2.4-5.1,5.9c0.2,3.3,2.3,5.1,5.6,5C216,590.6,217.6,588.4,217.9,583.2z M169.5,590.5c0,0.8,0.1,1.6,0.1,2.4
		c2.2,1.4,4.5,4.1,6.6,3.9c1.9-0.2,4.6-3.2,5.1-5.3c0.7-3.3-2.1-6-5.4-5.5C173.6,586.4,171.7,588.9,169.5,590.5z"
                />
                <path
                  d="M199.6,309.7c-42.9-3.5-84.1,2.3-124.2,16.3c-3.6,1.3-7.3,2.3-11,3.2c-1.1,0.3-3.1,0-3.5-0.7c-0.6-1-0.7-3-0.1-4.1
		c1.2-2.1,2.9-4,4.5-5.9c8.3-10,17.5-19.3,24.9-29.9c12.9-18.6,19.2-39.5,15.7-62.4c-0.7-4.5-2.9-8.8-4-13.2
		c-0.5-1.9-0.8-4.5,0.1-5.9c0.7-1.1,3.5-1.4,5.3-1.1c15.6,2.2,31.3,4.6,47.6,7.1c0-2.9,0-5.2,0-7.5c0-13.3-0.1-26.7,0.1-40
		c0-3.1,1-6.2,1.5-9.3c0.9,0,1.8-0.1,2.6-0.1c0.8,3.3,2,6.6,2.2,10c0.7,13.1,1.2,26.3,1.7,39.4c0.3,8.4,0.3,8.4,8.6,9.5
		c14.4,1.9,28.7,3.8,43.1,5.4c4.5,0.5,6,2.4,6.3,6.9c1.7,25.2-5,48.5-15.6,70.9C203.3,302.3,201.4,306.1,199.6,309.7z"
                />
                <path
                  d="M341.2,186.8c-2.7-2-4.3-3.2-5.9-4.4c-27-21-57.7-30.6-91.6-29c-8.8,0.4-17.5,4.6-26.3,7c-1.8,0.5-3.7,0.8-5.5,1.2
		c0.1-2.2-0.3-4.6,0.5-6.6c2.7-6.6,6.2-12.9,8.6-19.6c5.6-15.5,6.4-31.5,3-47.7c-0.3-1.4-0.4-2.9-0.6-4.6c8,0,15.6-0.5,23.1,0.1
		c7.6,0.6,15.1,2.2,23.8,3.6c0-7.9-0.1-15.9,0-23.8c0.2-8.2,0.5-16.3,1.1-24.4c0.1-1.3,1.4-2.5,2.2-3.8c1.2,1.1,3,2,3.3,3.3
		c0.8,3.4,1.1,6.9,1.3,10.4c0.8,12.6,1.6,25.3,2.2,37.9c0.1,3,0.8,4.8,3.9,5.9c17.2,6.2,29.6,18.1,38.5,33.9
		c9.4,16.7,15.7,34.5,18.2,53.5C341.4,181.5,341.2,183.4,341.2,186.8z"
                />
                <path
                  d="M431.3,671.5c-53,13.9-106.6,23.4-161.6,21.7c-33.1-1-65.4-7.1-96.9-17.4c-3.2-1-6.2-2.6-9.4-3.9c0.1-0.6,0.2-1.3,0.3-1.9
		c3.5,0,7-0.3,10.4,0c24.4,2.4,48.8,3.6,73.3,1.5c11.7-1,23.6-1.2,34.5-6.8c1.3-0.7,3.6-0.2,5.1,0.4c8.9,3.7,17.6,3.7,25.7-1.8
		c5.2-3.5,10.2-4.5,16.4-2.8c13.1,3.5,25-1.4,36.4-7.1c4.6-2.3,7.6-2,10.6,2c10.8,14.5,25.4,17.6,42.2,14.3c2.6-0.5,5.3-1,7.9-1
		c1.8,0,3.6,0.8,5.5,1.2C431.6,670.4,431.4,671,431.3,671.5z"
                />
                <path
                  d="M219.9,734.7c55,6.1,106-5.4,155.5-26.6c16.8-7.2,33.9-13.8,51.5-18.8c19.1-5.5,38.8-4,58.5,0.2c-2.3,0.4-4.7,0.8-7,1.2
		c-17.5,3.2-33.9,9.4-49.4,18.1c-35.1,19.7-72.3,33.9-112.2,40c-29.4,4.4-58.4,3.8-86.2-8.4c-2.9-1.3-5.7-2.8-8.5-4.2
		C221.5,736.1,221.2,735.7,219.9,734.7z"
                />
                <path
                  d="M13.1,700c12.5-9.1,25.4-14.9,39.3-18.6c19.2-5.1,38.4-3.2,57.5,0.6c34.9,7,69.7,14.8,104.6,21.8
		c28.5,5.7,57.3,8.8,86.4,6.5c6.4-0.5,12.7-1.3,19-2c0.2,0.4,0.3,0.9,0.5,1.3c-3.4,1.6-6.6,3.8-10.1,4.5
		c-13.5,2.6-27.1,5.7-40.7,6.9c-30.9,2.6-60.9-4-91-10.1c-26.9-5.5-53.8-11.3-80.9-15.6c-27.6-4.4-55.1-1.9-82.3,4.4
		C15,699.9,14.5,699.9,13.1,700z"
                />
                <path
                  d="M450.5,654.1c14.2-19.4,37.7-27.7,61.3-21.3c5.9,1.6,11.7,3.9,17.5,5.9c15.1,5.1,30.2,10.2,45.3,15.3
		c0.9,0.3,1.8,0.6,2.5,1.9c-12-1.3-24.1-2.4-36.1-3.9c-11.2-1.3-22.4-3.2-33.7-4.4c-19.1-2-37.9-0.2-56,6.7
		C451.2,654.3,450.9,654.2,450.5,654.1z"
                />
              </svg>