<svg xmlns="http://www.w3.org/2000/svg" width="10.76545" height="5.8205" viewBox="0 0 10.76545 5.8205">
  <g id="Calque_2" data-name="Calque 2">
    <g id="Calque_1-2" data-name="Calque 1">
      <g>
        <path d="M7.954,3.36c-.11061-.11017-.22114-.2212-.33462-.32144a.26664.26664,0,0,0-.2381-.08649.71065.71065,0,0,0-.149.07015c-.01645.00885-.0264.00675-.0401-.014-.06535-.09887-.12953-.20123-.1991-.29007-.16733-.21366-.16032-1.36358-.33038-1.57036a.39678.39678,0,0,0-.217-.161.32258.32258,0,0,0-.21447.0477c-.0291.0166-.06.05282-.08672.04473-.028-.00848-.05152-.06043-.07769-.09157A2.35519,2.35519,0,0,1,5.701.37852,1.85615,1.85615,0,0,0,5.58637.15863.26318.26318,0,0,0,5.37571.00012a.56543.56543,0,0,0-.36945.13921A2.36411,2.36411,0,0,0,4.52457.737c-.14961.2396-.29568.48619-.44609.72415a14.64693,14.64693,0,0,1-.58367,1.42742c-.1383.11071-.27549.22577-.41269.34074-.01577.01322-.02669.01136-.04185-.00194-.059-.05175-.11806-.10359-.17867-.14879a.25139.25139,0,0,0-.30717-.02088.86179.86179,0,0,0-.23865.206c-.10559.1367-.20836.28049-.31063.425a2.18993,2.18993,0,0,1-.35245.41446q-.15.12589-.29536.26895a.92279.92279,0,0,0-.22249.34462l-.01217.03506a2.70294,2.70294,0,0,1,.38109.02561c.21948.029.43831.06456.65789.09215a.76984.76984,0,0,0,.08291-.01888.4748.4748,0,0,0,.29248-.234L2.54857,4.594c.00371-.04693.00883-.09433.00963-.14128a.1185.1185,0,0,1-.01826-.02764c-.00265-.00564-.01217-.03678-.00979-.02592h0l.00109.00461-.0099-.0102-.02239-.0127-.01854-.00758c-.0226-.007-.04545-.01329-.06827-.01961-.02723.00142-.05387.00249-.07974.00188a1.53409,1.53409,0,0,1-.42068.13374.45448.45448,0,0,1-.08907-.01875.04851.04851,0,0,1-.02408-.01974.16681.16681,0,0,1-.03905-.02687A.17285.17285,0,0,1,1.713,4.30654.18261.18261,0,0,1,1.75749,4.192a1.18073,1.18073,0,0,1,.07186-.12975A.80953.80953,0,0,1,2.23416,3.738c.02556-.03685.05123-.07346.07673-.11044a.68707.68707,0,0,1,.20722-.22029.16323.16323,0,0,1,.17944.0118.35357.35357,0,0,1,.12236.26969.95341.95341,0,0,1,.27592.01782l.00151-.0037a.46285.46285,0,0,1,.07223-.11355c.08293-.08693.167-.1709.25255-.24935a13.653,13.653,0,0,0,.85406-1.83436A5.15406,5.15406,0,0,1,4.78489.73377.866.866,0,0,1,5.0404.50959a.19412.19412,0,0,1,.24249.05735.53141.53141,0,0,1,.10148.42393,2.22922,2.22922,0,0,1-.11659.51564A8.502,8.502,0,0,1,4.453,3.49943a1.60307,1.60307,0,0,1-1.034.44118,1.23074,1.23074,0,0,1,.09787.09595,2.92578,2.92578,0,0,0,.72345.38478s.66108.27938.88631.19409.22323-.16068.29247-.34269a1.40458,1.40458,0,0,0,.04876-.29322.44871.44871,0,0,0-.31343-.09577.97656.97656,0,0,0-.43.06762c-.10007.04868-.02-.342.02028-.43.15569-.34039.33578-.56863.58576-.60487a.67653.67653,0,0,1,.23839.00722c.01956-.02951.03892-.05967.05781-.09131.07756-.12988.32146-1.21984.40757-1.33447a.83457.83457,0,0,1,.294-.27622.18328.18328,0,0,1,.18861.01259.17648.17648,0,0,1,.06732.15427A8.67887,8.67887,0,0,1,6.349,2.49482a.94007.94007,0,0,0-.238.50123l-.00049.0022a1.13132,1.13132,0,0,1,.37983.39665c.09681.15547.19686.30433.30064.4452q.08174-.11832.16329-.237a.59966.59966,0,0,1,.2526-.24812.176.176,0,0,1,.18061.04787A.56721.56721,0,0,1,7.45,3.955a.699.699,0,0,1-.18023.22932,1.34646,1.34646,0,0,1-.11846.0897c.04224.04445.08492.08789.12855.12921a1.50064,1.50064,0,0,0,.54859.35631.82621.82621,0,0,1-.01309-.1235A1.6474,1.6474,0,0,1,7.85372,4.185l-.00311-.00338.01609-.04591a1.01661,1.01661,0,0,1,.041-.11631c.00863-.023.01756-.04566.02739-.06714a.82322.82322,0,0,1,.2618-.34132C8.11574,3.52783,8.03567,3.44136,7.954,3.36Z"/>
        <g>
          <path d="M.94679,5.13244a1.0246,1.0246,0,0,0-.50414.04683c-.07733.02416-.15282.05538-.22915.08339l.00238.01025a1.586,1.586,0,0,1,1.03787.05652A.45351.45351,0,0,0,.94679,5.13244Z"/>
          <path d="M2.64911,4.41145A.30089.30089,0,0,0,2.3595,4.196a.57075.57075,0,0,0-.28174.09035q-.0218.01272-.04306.02655c-.01292.00843-.02544.01763-.03813.02649A.681.681,0,0,1,2.64911,4.41145Z"/>
          <path d="M5.53118,3.96819c-.05665-.20912-.15906-.31761-.28962-.31543a.45869.45869,0,0,0-.28174.1323q-.0218.01864-.04306.03888c-.01292.01236-.02543.02582-.03813.03879A.506.506,0,0,1,5.53118,3.96819Z"/>
          <path d="M10.38258,5.03439A1.10165,1.10165,0,0,1,9.86091,4.741a3.91493,3.91493,0,0,1-.63023-.77035.61151.61151,0,0,0-1.144.05027c-.03244.0679-.05653.14608-.08446.21954l.00765.008c.01807-.02338.03587-.04733.05426-.07005a.69116.69116,0,0,1,.22806-.20045c.167-.07811.33372.06484.38634.33139a.57854.57854,0,0,1-.027.332.43394.43394,0,0,1-.23344.2618.58024.58024,0,0,1-.32671.024l-.02466-.00457a.92715.92715,0,0,0,.0902-.087c.01012-.01115.01959-.02379.03185-.03877a1.90936,1.90936,0,0,1-.225.038.95193.95193,0,0,1-.22435-.01457,1.38047,1.38047,0,0,1-.65359-.36756,4.90544,4.90544,0,0,1-.78959-.96516.81928.81928,0,0,0-.81418-.45792.81524.81524,0,0,0-.61906.52091c-.04065.08506-.07083.183-.10582.275l.00959.01c.02264-.0293.04494-.0593.068-.08777a.866.866,0,0,1,.28573-.25115c.20918-.09785.41811.08125.484.41519a.72487.72487,0,0,1-.03382.41594.54374.54374,0,0,1-.29247.328.727.727,0,0,1-.40933.03,3.8113,3.8113,0,0,1-.76927-.22588,2.82912,2.82912,0,0,1-.68544-.37664.95.95,0,0,0-.81419-.3127.8155.8155,0,0,0-.61905.35571,2.13285,2.13285,0,0,0-.10582.18782l.00959.00681c.02264-.02.04494-.04049.068-.05993a.852.852,0,0,1,.28573-.17151.382.382,0,0,1,.484.28353.35.35,0,0,1-.03382.284.47165.47165,0,0,1-.29247.224,1.04866,1.04866,0,0,1-.40933.0205c-.22605-.0267-.45122-.06211-.6771-.09063a2.19406,2.19406,0,0,0-.74043.01264A.865.865,0,0,0,.163,5.01223.53663.53663,0,0,0,0,5.27343l.03108-.01854a1.39715,1.39715,0,0,1,.95048-.20952,2.16074,2.16074,0,0,1,.65429.21566,4.85,4.85,0,0,0,.71093.29792,1.87108,1.87108,0,0,0,.77134.098.79789.79789,0,0,0,.32238-.09259.25457.25457,0,0,0,.07829-.38924c-.007-.01035-.01462-.01977-.02229-.02913a9.49315,9.49315,0,0,1,1.73235.5026,1.32776,1.32776,0,0,0,.77133.14351.62271.62271,0,0,0,.32239-.13559,1.48732,1.48732,0,0,0,.27539-.2863.94021.94021,0,0,1,.691-.27489,1.38685,1.38685,0,0,1,.52223.25207,3.351,3.351,0,0,0,.56744.34822,1.05974,1.05974,0,0,0,.61565.11454.497.497,0,0,0,.25732-.10821.3804.3804,0,0,0,.06249-.455c-.11547-.25093-.35805-.25516-.47227-.00838l-.00754.008c.00367-.23464.1-.38935.24417-.39386a.51926.51926,0,0,1,.258.08292c.11707.06366.23369.13046.35249.18473a1.18471,1.18471,0,0,0,.64214.13368.60975.60975,0,0,0,.38467-.20742c.00807-.0089.01563-.019.02542-.03095a1.525,1.525,0,0,1-.17956.03036A.76.76,0,0,1,10.38258,5.03439Z"/>
          <path d="M10.63154,4.91076a.35311.35311,0,0,0,.13391-.13457.91494.91494,0,0,1-.82755-.13253,1.02662,1.02662,0,0,0,.43535.28836A.33039.33039,0,0,0,10.63154,4.91076Z"/>
          <path d="M7.26125,5.19709a.57631.57631,0,0,0-.40239.05474c-.06173.02823-.122.06472-.1829.09747l.0019.012a.89584.89584,0,0,1,.82839.06607A.381.381,0,0,0,7.26125,5.19709Z"/>
          <path d="M8.62,4.35438c-.04521-.16692-.127-.25351-.23116-.25177a.3661.3661,0,0,0-.22487.1056q-.0174.01488-.03438.031l-.03043.031A.4039.4039,0,0,1,8.62,4.35438Z"/>
        </g>
      </g>
    </g>
  </g>
</svg>
