<svg xmlns="http://www.w3.org/2000/svg" width="10.31236" height="9.2755" viewBox="0 0 10.31236 9.2755">
  <g id="Calque_2" data-name="Calque 2">
    <g id="Calque_1-2" data-name="Calque 1">
      <g>
        <path d="M9.83171,1.39456a1.23049,1.23049,0,0,0-1.368.02749l-.01685-.02378L8.93623.95435,8.92308.93722l-.50725.3865.06735-.24494a1.38318,1.38318,0,0,1-.29617.40763V.91776c-.01965.26192-.05182.38937-.13886.44841l.025-.566L8.06047.79979,8.026,1.0836l-.033-.0012L7.92427.46624,7.89969.46905l.04346.57215-.0156.00294L7.77288.80537,7.75759.81474l.13259.26678A.8608.8608,0,0,1,7.76012.95015c-.04118-.04494-.087-.08566-.13074-.12823l-.008.00965.2288.31569-.01365.00967L7.5412.89191c.41741.52229.41741.52229.42411.72449-.02909-.04337-.05045-.07587-.07246-.10793A1.40155,1.40155,0,0,0,7.26844.95991.50667.50667,0,0,0,6.9151.9313a.13056.13056,0,0,0-.09637.18057,2.27684,2.27684,0,0,0,.13035.24664l.0233-.01106V1.14866l.04953.05413L7.05,1.08959l.08475.133.0528-.1062.02869-.00331.09147.19954.02409-.115.01688-.00272.05943.16891.05-.1062.06326.19878.04456-.12967.02387.003.03875.26191a.91363.91363,0,0,0-.10781-.03571c-.13093-.02462-.26187-.06142-.39329-.07408a.96352.96352,0,0,0-.92652.04275c.04308-.04483.08435-.0921.12973-.13382.05-.04594.10242-.0889.15618-.12922.05128-.03847.10564-.07187.15865-.1075l-.01008-.021c-.07771.04477-.15815.08462-.23239.13565-.07781.05349-.14968.11771-.24182.19137l.09651-.28139-.261.39027-.0274-.01556.04245-.54293c-.06606.30857-.07861.34923-.16766.4296.01193-.08487.02425-.16968.03568-.25464A1.782,1.782,0,0,0,5.90108.92158L5.85332,1.163l-.02257-.00217V.55844L5.79952.55771v.55548l-.0286.005L5.64721.85778l-.01212.006.09858.28823-.01036.00517L5.5381.87553,5.5243.88591l.16164.31168-.01413.01089-.20416-.252c.10729.23015.28944.41548.27808.70629-.0128-.02568-.026-.05115-.03832-.07708a1.4532,1.4532,0,0,0-.44382-.57649A.50158.50158,0,0,0,4.93426.90286c-.10851.00681-.16117.077-.13181.192a2.008,2.008,0,0,0,.08928.23247l.01967-.008.008-.19172.05368.05479.01742-.10707.07512.12844L5.11842,1.115l.02759.00033.06036.2113.02574-.11609.01837-.005.0357.15873.05631-.07752.037.19115.04661-.11967.01964.00462v.23013a3.96574,3.96574,0,0,0-.42019-.13621.527.527,0,0,0-.62011.4147c-.00449.0166-.00534.03443-.00978.06453l.23191-.3334.02433.01922-.10466.21648.0089.00789.0911-.12547.012.00655L4.626,1.82986l.01643.01716.18108-.2518.03089.031L4.773,1.75967l.00788.00751.15468-.14256.01521.01579-.07785.11725.006.00928.14513-.1286.01243.01437L4.974,1.766l.09592-.06424.01167.00753-.05791.1069a1.1112,1.1112,0,0,1,.28154-.039.81269.81269,0,0,1,.26685.10818c-.16337-.00739-.32676-.02125-.4901-.02046a1.28377,1.28377,0,0,0-.52876.12265.88961.88961,0,0,0-.25984.17758,2.51356,2.51356,0,0,0-.223-.36965A.97525.97525,0,0,0,3.64092,1.468a1.60686,1.60686,0,0,0-.60441-.12591c-.18671-.00081-.37348.01342-.56022.021a.9915.9915,0,0,1,.305-.11106,1.40553,1.40553,0,0,1,.32182.04l-.0662-.10974.01335-.00773.10964.06595-.07146-.11633.0142-.01476.16589.132.00687-.00953-.089-.12037.01738-.01621.17682.14635.009-.00771-.093-.137.0353-.0318.207.25849L3.55771,1.306l-.038-.10538.01377-.00673.10413.1288.01016-.00809-.11963-.22223.02782-.01974.26509.34227a.62174.62174,0,0,0-.01119-.06625A.604.604,0,0,0,3.101.92291a4.90949,4.90949,0,0,0-.48032.13983V.82649L2.64315.82176,2.69643.9446,2.7387.74837,2.80306.828,2.84387.665l.021.00517.02942.11918.069-.21691L2.99482.5721l.06031.09106L3.141.53131l.01992.10991L3.22228.585l.00918.19681L3.254.79A1.93612,1.93612,0,0,0,3.356.55139c.03357-.118-.02663-.19007-.15066-.19706a.618.618,0,0,0-.37646.10915,1.5246,1.5246,0,0,0-.50732.59182c-.01413.02663-.02917.05277-.0438.07913-.013-.29854.19523-.4888.31787-.72507L2.36225.66808,2.34611.65691l.18476-.32L2.51509.32627l-.2117.28914L2.29155.6101,2.40423.31421,2.39038.30805,2.249.5754,2.21627.57025V0L2.18058.00076V.61919L2.15477.62142,2.10018.37355a1.64756,1.64756,0,0,0,.0244.27083c.01306.08722.02714.17428.04078.26141C2.06357.82328,2.04922.78154,1.9737.46477l.04854.55736-.03132.016L1.69256.63746l.11032.28888C1.69755.85072,1.6154.78479,1.52645.72987,1.4416.67748,1.34965.63657,1.26082.59061L1.2493.61217c.06059.03657.12272.07086.18135.11035.06145.04139.12141.0855.17852.13266.05187.04283.09905.09136.1483.13738A1.226,1.226,0,0,0,.60948.98778.97532.97532,0,0,0,0,1.9551l.09421-.26978.0169.00488.01166.0859.01247.00084.0692-.21915L.2216,1.562v.25345L.234,1.81737l.07373-.33675.02313.00093.02878.16569.12873-.34035.03094.00832-.03274.23992A1.75,1.75,0,0,1,.77068,1.087a1.49,1.49,0,0,1-.05292.15529c-.01646.04885-.0264.09989-.03921.15l.01568.00382.10183-.20278.02044.00892-.05189.24318c.09746-.10915.08735-.25957.21926-.32507L.92274,1.374l.01545.00552L1.058,1.15875l.01975.0066v.14227l.09549-.15227.03183.04994.09705-.15155.00959.12012.0212.01226.071-.13406.03413.03082.01186.0619a.4421.4421,0,0,1,.4758.1206,1.11085,1.11085,0,0,0-1.329,1.0179l.10624-.27444.01174.00589L.69527,2.2591l.02022.0018L.77911,1.996.79766,1.997v.15282l.01625.0007.05211-.274.0173.00236.02461.178.07887-.3242.02479.00406.02364.10777q.11734-.1537.23549-.30818l.00837-.00453.04393.03.04674-.089.00749.0175.21656-.08128a1.59252,1.59252,0,0,0-.56644.72827c.34509-.47448.55831-.668.72607-.65609A2.41151,2.41151,0,0,0,.74927,3.73546L.794,3.52756l.03259.00249v.61589l.02913-.00009V3.85953l.01562-.00426.08.16968L.872,3.50212l.02746-.00468.09784.3264.012-.004-.076-.5795L.968,3.23542l.07127.30975.01189-.00231L1.02092,3.0433l.02631-.00205.03844.158.02918-.31.04437.06253.06172-.41329.03087.0028.01161.12552.01252.00129.0475-.16206.01666.00012.0123.17571.13779-.5021.02412.00654-.05986.46082.02049.00339.13921-.53631L1.64,2.11869l.01478.10323a1.01335,1.01335,0,0,0,.05013-.17,1.92786,1.92786,0,0,1,.1023-.304.20176.20176,0,0,1,.19518-.11911c.02514.00146.0489.02674.0733.0411a.271.271,0,0,1-.04809.04447.1484.1484,0,0,0-.07753.17943A.16943.16943,0,0,1,1.94235,1.99c-.02942.06753-.03363.14234.02966.17362.08479.04191.07166.101.06634.16742-.00347.04315-.0066.08635-.00841.1296A5.55581,5.55581,0,0,0,2.2754,4.59337,6.87084,6.87084,0,0,0,3.68386,6.93123a.16833.16833,0,0,1-.07564-.03281c-.16382-.131-.3203-.2722-.49135-.39283a1.15826,1.15826,0,0,0-.672-.17051c.17388.06093.38764.12155.589.21037a1.51853,1.51853,0,0,1,.51968.40193A1.5937,1.5937,0,0,0,2.1593,6.72073a4.35043,4.35043,0,0,1,.57358.00561,4.57449,4.57449,0,0,1,.57458.14682l-.00581.03461a1.373,1.373,0,0,0-.72943.114c.51636-.08246.72738-.08492.88376-.00075-.165.0626-.32215.12584-.48179.182-.28824.10141-.57911.19546-.86629.29971-.0748.02715-.17788.06146-.16733.16062.01028.09654.11658.11591.19535.12891a3.80811,3.80811,0,0,0,.60592.07437c.85652.00168,1.71326-.00152,2.56957-.01963.89351-.01889,1.78656-.05886,2.67994-.08544.2596-.00772.51963.0001.77945-.00215a.968.968,0,0,0,.14531-.02276L8.919,7.70388c-.0677-.0344-.13427-.07126-.20328-.10278-.3849-.17582-.7718-.34734-1.15523-.52629a4.38877,4.38877,0,0,0-.88464-.32652c-.16773-.03789-.33679-.0699-.52754-.10915A5.47356,5.47356,0,0,0,8.1752,2.58328c.17308-.00589.22128-.06773.18251-.21543a.09578.09578,0,0,1-.00324-.04244c.01037-.04869.04012-.10062.0304-.14414-.0097-.04339-.058-.07815-.0958-.1245.31479.06287.292.354.39426.57707L8.699,2.51662l.02157-.00336.19079.51444L8.93171,3.022l-.11064-.4643.0225-.00789.1952.50123V2.877l.01261,0,.05887.14969.0188-.00372V2.89744l.02551-.00353.09969.39254.03856-.05282L9.35,3.50184l.01066-.00275.01742-.11985.03153.00121v.489l.027-.00009.04132-.31458.01939.00334V4.185l.07315-.35966.03042.00427-.033.53322.06763-.2015.01568.00037.02944.304.03064-.003-.042-.61889.01431-.00165.04859.15127A2.40319,2.40319,0,0,0,8.509,1.87952a1.44684,1.44684,0,0,1,.811.60915A1.41289,1.41289,0,0,0,8.66353,1.826l.013-.01859.2362.065.04031.05874.04333-.0332.27433.28731.00776-.1101.027-.00483.10223.28536.01662-.00225V2.21032l.01933-.0013.07908.2733.00809-.00222-.01315-.174.018-.00285.09737.27492.02107-.0067-.05651-.2677L9.608,2.29926l.127.24621a1.09017,1.09017,0,0,0-1.41524-.8419.47962.47962,0,0,1,.46136-.182l.01943-.075.12065.09353.00754-.11559.10278.143.03139-.05209.11187.13969L9.16278,1.514l.01557-.00507.13931.2021.01172-.008-.08249-.24793.03556-.01958.1992.31794.01168-.0072-.07692-.23335.02193-.0087.12539.20508L9.5844,1.699l-.13554-.29845a.4893.4893,0,0,1,.13419.12965A1.83579,1.83579,0,0,1,9.68,1.68808c.02883.05008.05524.10156.08271.15242l.018-.00907-.05383-.231.0289-.01061.16474.33108.00992-.16732.02453-.00178.10681.32163.0145-.00388-.03378-.26485.01667-.00445.10486.24232.00783-.11393.01514-.00382.1254.27642A.96116.96116,0,0,0,9.83171,1.39456ZM7.922,1.98387c-.08372.02416-.16469.05117-.24239.082-.00553-.01815-.01134-.03608-.01777-.05351a.293.293,0,0,1,.056-.02443A.72975.72975,0,0,1,7.922,1.98387ZM6.72832,2.6095l.00629-.12613c.03341.0482.06832.10015.105.1563a.69683.69683,0,0,0-.10067-.24307L6.74007,2.374l.01733.00111.05316.14413L6.826,2.51367l.01756-.21433L6.851,2.262l.014-.00181.02093.03458.05825.26657L6.96338,2.406l.01135-.00423V2.38653l.006-.00091.03591.21023a1.22792,1.22792,0,0,0-.07043.13709,1.38644,1.38644,0,0,0-.06.168A2.39077,2.39077,0,0,0,6.72832,2.6095Zm-.5239-.60892c.07966-.00628.17124.047.28643.17036q-.03138.02456-.06112.0513Q6.32425,2.10784,6.20442,2.00058Zm.2582.02066.02053-.03285.05037.02105.00656-.017.04088.08673.03843-.02927.00733.00442.01221.01779c-.03394.01919-.067.03953-.0987.0617q-.08709-.09858-.19616-.2035l.11078.0463-.01238.03806Zm.202-.32337.01951.03391.02607-.04555.00094.00054-.07557.18374c-.02038-.00927-.04135-.01778-.06274-.02572Zm.45368-.01745.0185.02659-.0267.05984c-.00574-.01887-.01221-.03749-.01863-.05617Zm.17065.19831-.00488-.03989.02707-.0081.01513.04454Zm-.10768-.09347-.04246.08547c.02372-.01119.04572-.02285.06684-.03416l.02167.04989c-.02892.00392-.05756.0082-.0857.01316-.00852-.03862-.01661-.0774-.027-.11531l.0463-.037Zm-.05691.11765c-.02163.004-.04342.00779-.06457.01244L7.0332,1.77641l.02264-.02552Zm-.29925.08227a.93963.93963,0,0,0-.11628-.07738l.07749-.09268.00919.01633V1.80413l.04715-.0564.02571.05276-.02019.0355.01666.0105.01737-.01761.03537.07259.01352-.00538-.02073-.09577.05415-.05492c.007.014.01337.02866.01936.04372L6.974,1.80576l.019.016L6.99545,1.819a.75938.75938,0,0,0,.044.1014A1.65341,1.65341,0,0,0,6.82515,1.98518Zm-.10629-.20144.0134.006-.02946.11451q-.02241-.01243-.04577-.02372Zm.18879-.11368a.19325.19325,0,0,1,.02248.022l-.03127.055-.01142-.05276Zm-.25932.77272.05921.13312c-.02032-.03091-.042-.06113-.06381-.09131Zm.39223.0602.01623-.001.00508.02354-.02131.03223Zm.1032-.081a1.06469,1.06469,0,0,0-.09685-.19166l.02549-.14885.023-.00131.07716.15127L7.20533,2.073l.06551.10066L7.25268,2.039l.09241.0995-.00722-.02927.05742-.03085.0285.0839.01664-.10665.03629-.01747.02181.11095A1.24963,1.24963,0,0,0,7.14376,2.422Zm.40076-.33256.01606-.01061.00976.03441-.02582.012Zm.22992-.24655c-.06337.00661-.12592.01065-.18813.01431a.798.798,0,0,0-.05556-.07837l.0433.00718A1.84618,1.84618,0,0,1,7.77444,1.84291ZM6.63187,1.64085a.5918.5918,0,0,0-.04.046l.00736-.10265Zm-.16185.032.01038-.0603.02985-.03.06131.129A.68046.68046,0,0,0,6.525,1.786c-.00647.012-.01168.02468-.01712.03724a1.12925,1.12925,0,0,0-.45408-.03293A.36031.36031,0,0,1,6.47,1.67283Zm-.48341.47149a.17568.17568,0,0,1,.17074.116,1.3795,1.3795,0,0,1,.06669.2078,1.41721,1.41721,0,0,0-.14678.31718c-.03524.10837-.07261.216-.10993.32373q-.002-.07719-.0048-.15447c-.00158-.04212-.00433-.08421-.00736-.12624-.00465-.06467-.01614-.12226.058-.16309.05536-.03046.05169-.10334.02595-.16912a.18271.18271,0,0,1-.00679-.09368.15087.15087,0,0,0-.06782-.17479.249.249,0,0,1-.04207-.04332C5.94382,2.17037,5.96461,2.14574,5.98661,2.14432ZM5.16671,6.361l.00437.03513-.01729-.01221Zm.042-.07549q.03489-.06329.06844-.12744L5.214,6.36041Q5.2105,6.323,5.20869,6.28551Zm.02016-1.00415a5.33255,5.33255,0,0,1-.36642.679c-.00928-.01775-.01932-.03487-.02835-.05283a4.1135,4.1135,0,0,1-.38162-1.30685c-.02173-.15956-.02773-.32126-.041-.48266.06587-.01062.1132-.0303.11743-.09474.00466-.0709-.04537-.09492-.10581-.109l.00421-.08487.01813-.00325a.738.738,0,0,1,.17543.49183l.02735-.09988.01956.17578.01391-.07016.00991.00118v.19l.0362-.08765L4.74468,4.43l.01815.18376.02424-.05956.01491.00082.02907.24753a1.73449,1.73449,0,0,0-.04933-.49252,1.10344,1.10344,0,0,0-.30634-.57315.31153.31153,0,0,1,.11446-.00947.18852.18852,0,0,1,.02888.006c.00723.03574.01525.07158.025.10762l.01011-.09354a.25289.25289,0,0,1,.10464.13324l.05328-.029c.02763.03911.05219.0804.07731.12128l.00521-.00465.05131.06342.05832-.03073v.18355l.062-.02278L5.054,4.349,5.11627,4.277l.01258.00529-.04613.18624.07151-.07632-.03013.21894.06316-.10381.01482.00574L5.162,4.79049l.01053.00274.05436-.13756.02512.00272.03091.25689a1.03708,1.03708,0,0,0-.08477-.7988.77419.77419,0,0,0-.54056-.404L4.66252,3.667a.83106.83106,0,0,1,.09649.05213c.0075-.02283.0097-.04826.01747-.0501a.079.079,0,0,1,.103.06916l.04739-.0655.01142.00608v.06171l.03963-.0489.02628.09115L5.0491,3.674l.01324.00165.04176.14154.03055-.08306.01251.14833.01338.00366.06195-.12333.03417.18644L5.26913,3.949,5.292,3.84164l.01132.00058.02627.16658.04219-.12558.05979.30475.01218-.0024-.0105-.21034.02541-.00295.056.29444.0042-.00084V4.10012l.01259-.001.03126.17985L5.5675,4.2784A5.64217,5.64217,0,0,1,5.22885,5.28136ZM4.5927,3.55774l.001.00918L4.57083,3.568Zm.25188-.63543.0164-.00767.011.01409-.02333.01168Zm.10248.52435.009-.00519.07358.04426-.048-.07807.00953-.0099.11132.0886L5.1071,3.48l-.05972-.08077L5.059,3.38831l.11866.09821.006-.00518L5.12133,3.3894,5.145,3.36805l.086.1074c-.00152.04-.0021.08015-.00132.12043a1.0328,1.0328,0,0,0-.28293-.042c-.05289-.00023-.10579.00151-.15869.00378l-.00836-.0644a.993.993,0,0,1,.21177.027Zm-.18754-.10918-.0104-.08016L4.76844,3.249l.03975.07274Zm-.0294.16445.02034.05733-.07671.00386.00476-.044A.44452.44452,0,0,1,4.73012,3.50193Zm-.12605.14853.00844.05181q-.06431-.01347-.13183-.02192A.17405.17405,0,0,1,4.60407,3.65046Zm.96842.60751-.02167-.2415.01535-.00834.0449.07762Q5.59283,4.17219,5.57249,4.258Zm.163-1.99779.02362.00473.00549.12319c-.07878.02038-.144.05524-.13794.15816.00553.09354.06722.12211.15309.13752-.01726.23428-.02508.469-.05341.70061q-.03026.2475-.07389.491l-.01193-.01713a.65439.65439,0,0,0-.28816-.21985c-.03667-.015-.0738-.028-.1113-.03925l.01036-.09821.0325.04058.0126-.01182L5.271,3.459l.00924-.00452.06988.08644L5.357,3.53548l-.08028-.14914.01866-.01324.1779.22968a.35471.35471,0,0,0-.14681-.252l.019-.214.022-.004L5.41459,3.26V2.98415l.01291-.00171.01813.10184.0255-.25516.03566.145A1.14776,1.14776,0,0,1,5.7355,2.26018ZM5.27772,3.3178,5.29014,3.317l.00386.01055Zm.01939-.35519c-.02207.112-.04091.2246-.05319.338a.42177.42177,0,0,0-.25387-.028,1.3641,1.3641,0,0,0-.15013.03919l-.025-.20206.00255-.0102.0112.00275.00385.00457.01879.07613L4.86375,3.144l.041.04869-.02324-.10446.01614-.05075.02117-.00023.04046.06111.05763-.08848.01336.07376.04118-.03774.00616.13207.0151.00554a1.30068,1.30068,0,0,0,.06848-.16015c.02252-.07918-.01787-.12755-.10111-.13224a.37638.37638,0,0,0-.12439.014l-.009-.1576.08085.03307V2.51414l.076.0446.06689-.092.00678.00674c.03276-.05934.06477-.11927.1008-.176l.06946.04212c.03932-.10511.098-.20616.21981-.22261a.36623.36623,0,0,1,.1492.01375A1.6655,1.6655,0,0,0,5.29711,2.96261ZM4.58288,2.5253l.03425-.24179.01475-.00085.02983.15576L4.678,2.4388l.04455-.27063.08076.179.01745-.00531.0163-.21531.03983.12056.05444-.20545.01726-.0024.05846.15786.03427-.13231.05166.071V2.04624l.01488-.00883.06179.09508c.01808-.08347.06465-.1187.13434-.10039.01013.00267.013.03959.02277.07272.10689-.06971.22278-.158.36285-.05628a1.09654,1.09654,0,0,0-.93536.63306,1.82855,1.82855,0,0,0-.14557.46273,1.31055,1.31055,0,0,0-.14165.21715c-.00948.01786-.01958.0354-.02939.0531-.00872-.20035.131-.328.21331-.48657l-.15661.17361-.01084-.00749.124-.21473-.01059-.00715-.14206.194-.00795-.00357.07562-.19856L4.51317,2.86l-.0949.17941L4.39633,3.036V2.6533l-.01268.00026.02695-.15775q.01649.02738.03386.05392l-.01041.23215.01588.0035L4.52788,2.343Zm-.13514-.04872-.00233.052L4.426,2.47376Zm-.21819-.2403c-.01809.02241-.03565.04559-.052.07048l-.01975.03157-.01738-.178A.5748.5748,0,0,1,4.22955,2.23628Zm-1.47283-.648c.01118-.034.01445-.07192.026-.07465a.11764.11764,0,0,1,.15357.10306l.07062-.09761.017.00906v.09195L3.083,1.54721l.03917.13583L3.189,1.521l.01973.00246.06223.21092.04552-.12377.01864.221.01994.00545.09232-.18377.05092.27783.01857-.0004.03411-.1599.01686.00087.03915.24823.06287-.18714.0891.45413.01815-.00359L3.76147,1.9699l.03785-.0044.08347.43876L3.889,2.403V2.156l.01877-.00151.04658.268.01717-.002-.03492-.38913.02288-.01244.19126.33063a2.98259,2.98259,0,0,0-.31672.71934,1.28906,1.28906,0,0,1,.28217-.40677l-.01761.2007.17586-.3385.02.01212-.03055.37905.015.002.04075-.26106.01642.00146v.24061l.00547.00122.03078-.18014v.34927l-.01732.0015L4.31843,2.904a1.10547,1.10547,0,0,0,.01637.18174c.00877.05853.01822.117.02737.17542-.06831-.05536-.07794-.08338-.12861-.29595l.03256.374-.021.01072-.20022-.26887.074.19386c-.07068-.05075-.12581-.095-.1855-.13184-.057-.03516-.11865-.06261-.17826-.09345l-.00773.01446c.04066.02455.08236.04755.1217.07406.04123.02777.08147.05737.1198.089.03481.02874.06647.06131.09952.09219a.806.806,0,0,0-.51654-.08567,1.55755,1.55755,0,0,0-.16077-1.05332A1.26306,1.26306,0,0,0,2.342,1.53048C2.50207,1.42607,2.63453,1.5167,2.75672,1.58826Zm.11187,3.261a6.1296,6.1296,0,0,1-.56868-1.94741c-.03238-.23777-.04132-.47873-.06105-.71924.09816-.01582.16868-.04516.175-.14118.00694-.10566-.06762-.14144-.15767-.16237l.00627-.12646.027-.00485a1.09971,1.09971,0,0,1,.26142.73291l.04076-.14885.02915.262.02073-.10455.01476.00175v.28319l.05394-.13062.02514.0041.02705.27383.03612-.08875.02222.00122.04332.36885a2.58471,2.58471,0,0,0-.07351-.73393,1.64426,1.64426,0,0,0-.4565-.85408.46407.46407,0,0,1,.17056-.01412.31844.31844,0,0,1,.25126.22853l.0794-.04324c.04118.05828.07777.11981.11521.18073l.00776-.00693.07645.0945.08691-.04578V2.282L3.214,2.248l-.01776.27877.09282-.10719.01875.00787L3.23909,2.705l.10658-.11372-.0449.32624.09411-.15468.02208.00855-.05969.41335.01569.00409.081-.205.03743.004.03077.25574a.98478.98478,0,0,0-.2041.07252.65451.65451,0,0,0-.409.64913l.06323-.181.01134.00327.00782.05765.00837.00056.04644-.14706.01151.00283v.17008l.0083.00129.04947-.226.01553.00062.01931.11119.08639-.22839.02076.00558-.022.161a1.17452,1.17452,0,0,1,.19069-.31412.99993.99993,0,0,1-.03552.10421c-.01105.03278-.01772.067-.02631.10064l.01052.00257.06834-.13608.01371.006-.03482.16319c.06541-.07325.05862-.1742.14714-.21815l-.041.17019.01037.00371L3.619,3.4309l.01325.00443V3.5308l.06409-.10218.02136.03351.06512-.1017.00644.0806.01422.00823.04762-.09L3.87405,3.38l.008.04154a.29668.29668,0,0,1,.3193.08093.74547.74547,0,0,0-.89186.68308l.0713-.18417.00788.004-.013.164.01357.00121.04269-.1778.01245.00072V4.096l.0109.00047.035-.18388.01162.00159.01651.11947.05292-.21756.01664.00272.01587.07233q.07875-.10315.158-.20681l.00562-.003.02948.02016.03137-.05975.005.01174.14532-.05455a1.06871,1.06871,0,0,0-.38012.48872c.23158-.3184.37467-.44825.48724-.44027A1.61827,1.61827,0,0,0,3.41188,5.16l.03-.13951.02187.00167v.4133l.01954-.00006V5.2433l.01049-.00285.0537.11386-.05321-.35085.01842-.00315.06566.219.00807-.00268-.051-.38889.02331-.0033.04784.20786.008-.00154-.02032-.33524.01766-.00138.02579.106.01958-.208.02978.042.04142-.27735.02072.00188.00778.08424.00841.00086L3.79718,4.335l.01118.00008.00826.11791.09247-.33694.01618.00439-.04017.30924.01375.00227.09342-.35989.01736.003.00992.06927a.679.679,0,0,0,.03365-.11406,1.29334,1.29334,0,0,1,.06865-.204.13538.13538,0,0,1,.131-.07993c.01688.001.03282.01795.04919.02758a.18127.18127,0,0,1-.03227.02984.09959.09959,0,0,0-.052.12041.11361.11361,0,0,1-.0052.06454c-.01974.04532-.02256.09553.0199.11652.05691.02812.0481.06779.04452.11235-.00232.029-.00442.05794-.00564.087A3.72853,3.72853,0,0,0,4.436,5.73576q.07784.21723.17521.42325L4.581,6.15356l.03091.007c.015.03167.03148.06246.04714.09373a4.44283,4.44283,0,0,1-.31135.37058A4.879,4.879,0,0,1,2.86859,4.84927ZM7.95942,2.37036a.139.139,0,0,1,.00605.07938c-.026.18966-.04491.38089-.08293.56819A5.15708,5.15708,0,0,1,6.662,5.46907,7.54821,7.54821,0,0,1,5.466,6.44921a.24323.24323,0,0,1-.05094.01381l.14811-.54178a1.909,1.909,0,0,0-.25047.62416,1.084,1.084,0,0,1,.06383-.58407,7.186,7.186,0,0,0,.37123-.92925A4.30876,4.30876,0,0,0,5.901,4.37865l.003.00463-.00263-.0074a6.82369,6.82369,0,0,0,.06791-1.17767.83068.83068,0,0,1,.24558-.37942v.19515l.134-.3.064.27458v.0549l.01253-.00119.02269.09734.01793-.0033L6.435,2.8709l.00456-.08442.02136.00094.014.05667v.16175l.01757-.00046.006-.06564.05677.23033L6.566,2.99891l.01458-.00012.04155.15786.011-.00125.01015-.12227.027-.00273.054.40258.03882-.0609.02553.302.03282-.1502c.00329.04916.00889.09594.01609.14043l-.01876.34451.0104.00224L6.87072,3.81a.65946.65946,0,0,0,.03044.08019l-.04578.38845.01053.0039.08558-.318.024.00456-.06937.50929.07-.16529.01367.00415v.2789l.02548.00009V3.99631l.02851-.00243.03909.20251a2.854,2.854,0,0,0,.00925-.45211L7.09278,3.744,7.092,3.741a2.46279,2.46279,0,0,0-.04965-.36991l.08317.1179L7.0496,3.18482l.01618-.00954.09952.09459L7.06322,2.987l.0395-.02779.06765.112.01336-.01177-.047-.26483.09553.04506c-.00662-.05251-.01414-.09487-.01673-.13754-.00269-.04434-.0006-.089-.0006-.14131l.09371.03619c.03744-.07465.07656-.14148.1052-.21254.036-.0894.05738-.099.13215-.04179a1.12386,1.12386,0,0,1,.06134-.09892l.01272.04486L7.631,2.28779l.01019-.08367L7.656,2.19936l.08242.2628a1.697,1.697,0,0,0-.03952-.32473.20084.20084,0,0,1,.2764-.02322C7.88306,2.23118,7.88429,2.23187,7.95942,2.37036Z"/>
        <path d="M9.46119,8.234c-.042-.01007-.08413-.02-.12675-.02651A7.11931,7.11931,0,0,0,8.00165,8.161c-.36765.013-.73578.01294-1.10371.01738a.88488.88488,0,0,1-.11126-.01229l-.00007-.0248c.26089-.08624.5468-.07162.80241-.17914-.128-.00734-.2542-.011-.38018-.00676-.91479.03067-1.82932.07523-2.74435.09073-.71413.01209-1.42885-.01158-2.14332-.01869-.1548-.00154-.30964-.00023-.46447-.00023l-.00139.05255,2.35683.163c-.33491.02036-.66852.01559-1.00194.02169q-.50545.00924-1.01056.03651a6.69673,6.69673,0,0,0-.98156.09424.0354.0354,0,0,0,.02763.01611c.43558.01315.8711.03052,1.30679.03752.36466.00585.72954-.0024,1.09429,0a2.4658,2.4658,0,0,1,.26192.02867l-.00106.02348a.64756.64756,0,0,1-.08742.0192c-.17254.01429-.34521.02709-.51788.0398-.43163.03178-.86337.06231-1.29486.096a1.27226,1.27226,0,0,0-.1716.0368l.00191.02841a.98744.98744,0,0,0,.15025.02187c.29368-.00129.58735-.00576.881-.00959.64-.00834,1.27995-.01809,1.92-.024a2.09052,2.09052,0,0,1,.25065.02691l-.001.04227c-.372.026-.74411.051-1.116.0784a5.695,5.695,0,0,0-1.10581.13878c.85915.047,1.716-.07263,2.57548-.02833-.3184.10419-.66183.07817-.98934.19808a10.93786,10.93786,0,0,0,3.67331-.12393c-.06878-.007-.12294-.01668-.17724-.01749-.42678-.00637-.85366-.0078-1.28035-.01771-.19738-.00458-.39449-.02359-.5915-.03892a.33974.33974,0,0,1-.08592-.03121l.00356-.035,2.944-.26956-.00094-.03831c-.09357-.01093-.187-.02994-.28073-.0315C7.9239,8.55047,7.2406,8.54407,6.55738,8.533c-.40482-.00654-.8096-.01725-1.21429-.02981a.938.938,0,0,1-.17266-.03774l-.00024-.02831A.44533.44533,0,0,1,5.25964,8.407c.16558-.01949.3313-.048.49739-.05114.6153-.01144,1.23077-.01364,1.84617-.02028.50713-.00547,1.0143-.01,1.52135-.0202.12374-.0025.24706-.02571.37057-.0394C9.48241,8.24582,9.47256,8.23674,9.46119,8.234Z"/>
      </g>
    </g>
  </g>
</svg>
