<svg xmlns="http://www.w3.org/2000/svg" width="10.01797" height="14.30048" viewBox="0 0 10.01797 14.30048">
  <g id="Calque_2" data-name="Calque 2">
    <g id="Calque_1-2" data-name="Calque 1">
      <g>
        <path d="M5.882,2.371a.80989.80989,0,0,1,.19637,1.01225.98241.98241,0,0,0,.11411-.01815c.01426-.02013.02873-.04028.04376-.06036-.0022.01752-.00538.03438-.00824.05146a.735.735,0,0,0,.08389-.02729,1.17943,1.17943,0,0,0,.16092-.08068l.00679-.01378.00113.00913q.04545-.02731.08953-.058a1.5465,1.5465,0,0,0-.10459-.33113A1.12485,1.12485,0,0,0,5.882,2.371Z"/>
        <polygon points="3.968 3.248 3.968 3.248 3.968 3.248 3.968 3.248"/>
        <path d="M5.87993,3.29472a.70158.70158,0,0,0,.032-.6816c-.04271.20281-.07426.40909-.13555.60613-.0162.05209-.12114.0766-.20947.12622a2.05017,2.05017,0,0,0,.27357.03988C5.85328,3.35458,5.86626,3.32443,5.87993,3.29472Z"/>
        <path d="M6.09169,4.45418A1.32535,1.32535,0,0,0,6.45764,4.142,1.1744,1.1744,0,0,0,6.683,3.10105q-.0555.04442-.11273.08452A1.37934,1.37934,0,0,1,6.09169,4.45418Z"/>
        <path d="M3.42956,2.89146a1.57107,1.57107,0,0,0,.32851.50673A2.85338,2.85338,0,0,1,3.55321,2.883l-.00933-.00034C3.50367,2.88779,3.46577,2.89049,3.42956,2.89146Z"/>
        <path d="M6.07837,3.38328a1.38377,1.38377,0,0,1-.23789.00207c-.04564.10969-.08852.22882-.14765.3783A1.279,1.279,0,0,0,6.07837,3.38328Z"/>
        <polygon points="5.487 1.532 5.493 1.536 5.492 1.532 5.487 1.532"/>
        <path d="M6.00714,4.19432a1.03939,1.03939,0,0,0,.47359-.95071l-.00792.00465Z"/>
        <path d="M3.90326,3.4007a1.143,1.143,0,0,0,.92727.48384Z"/>
        <path d="M9.86647,12.85663a1.19133,1.19133,0,0,0-.12759-.03675l-.04408-.00807a2.14959,2.14959,0,0,0-.06666-.54893,1.51323,1.51323,0,0,0-.23411-.51213q-.15272-.2121-.31079-.39967a3.224,3.224,0,0,1-.37087-.61589c-.10762-.21481-.21575-.42848-.32685-.63162a1.08814,1.08814,0,0,0-.25112-.30614.20775.20775,0,0,0-.32321.031c-.06377.06716-.126.14419-.188.22109-.016.01978-.02745.02253-.04405.00289-.14437-.17085-.28873-.34183-.43424-.50635a2.89169,2.89169,0,0,1-.42854-.72243c-.15828-.35361-.312-.72006-.46941-1.07611a3.55857,3.55857,0,0,0-.50684-.88822.64927.64927,0,0,0-.23189-.177V4.25911l.0143-.00623A1.20357,1.20357,0,0,0,6.228,3.35623l-.03552.0089a2.63342,2.63342,0,0,1-.335.43569.9556.9556,0,0,1-.34928.20457V3.52181a.31661.31661,0,0,0,.05563-.17466l.00306-.00168c-.01987-.0042-.03913-.00918-.05869-.0138V3.25624A.20312.20312,0,0,0,5.431,3.09783a1.0298,1.0298,0,0,0,.13815-.12614c-.51518.16189-.63484.12051-.883-.26141a.59979.59979,0,0,1-.00028-.73943.86237.86237,0,0,1,.807-.43484l-.0065-.00438h.00013l-.001-.00075L5.491,1.52873c-.05838-.21931.14745-.14842.218-.15695a1.95292,1.95292,0,0,1,1.49767.40011c.12194.09618.22917.211.37008.3424a9.11465,9.11465,0,0,0-.9278-.5126,1.45732,1.45732,0,0,0-1.158-.073l.00083.00319.87223.047-.00735.01751a5.28507,5.28507,0,0,0-.9972.11386c-.29785.09006-.67569.16512-.72291.6321.48808-.78592,1.28573-.73142,2.05446-.16853a4.93457,4.93457,0,0,0-.62446-.23315,1.30769,1.30769,0,0,0-.59131.01526c.12353.01819.24865.02917.37029.056.32153.0709.41657.38192.58539.59833a1.38934,1.38934,0,0,1,.252.49077c.18673-.14949.36072-.33065.54695-.4814a7.02508,7.02508,0,0,0,.66716-.35037.48647.48647,0,0,1,.221-.05056,1.154,1.154,0,0,0,1.17958-.90591A.68651.68651,0,0,1,9.47385,1.013C9.643.85037,9.83346.71,10.018.55822A1.31821,1.31821,0,0,0,8.459.19158,2.14968,2.14968,0,0,1,7.38719.14742,2.37788,2.37788,0,0,0,5.81007.12483a3.54151,3.54151,0,0,1-.955.12772,5.595,5.595,0,0,0-.58733-.03C3.91026.2875,3.57821.5724,3.18977.29945,3.14952.27117,3.03834.35453,2.957.37128,2.8542.39247,2.7239.44446,2.64739.40394,1.86427-.01075,1.0816.45969.29982.39949.20575.39225.10022.534,0,.60667A3.07527,3.07527,0,0,0,.24283.85814a2.15916,2.15916,0,0,0,.366.26155c.20811.10974.4266.20042.64332.293.11871.05072.2458.082.36388.134.31875.14028.6347.287.97215.44035.1699.39227.24165.92056.84135.90441A1.64108,1.64108,0,0,1,3.88877.99356,2.17212,2.17212,0,0,0,3.55321,2.883c.04094.00663.0938.08365.1343.12953a1.16557,1.16557,0,0,0,.28052.23523A1.37867,1.37867,0,0,1,3.8856,1.46717a1.977,1.977,0,0,0,.08263,1.78074.85846.85846,0,0,0,.22061.09318c-.023-.02038-.04575-.04123-.06821-.063l.19325.08394a.71909.71909,0,0,0,.31831-.047,1.23542,1.23542,0,0,1-.64543-.81471l.02685.29384a1.187,1.187,0,0,1,.0678-1.13036l-.00691.00383.00876-.00814-.00893.00829.00636-.00731-.09063.03437A1.95329,1.95329,0,0,1,6.02791.61485a2.95447,2.95447,0,0,0-1.44854.50063,4.36832,4.36832,0,0,0-.49868.54493l.00257-.001-.00185.00431a1.16252,1.16252,0,0,0,.2755-.16728A1.93565,1.93565,0,0,1,5.50122.8827a4.77266,4.77266,0,0,0-.46969.23593,2.64069,2.64069,0,0,0-.508.38574A.976.976,0,0,0,4.71913,3.102a.80425.80425,0,0,0,.19133.09457.42762.42762,0,0,1,.196.01148l-.00322.01677a.54453.54453,0,0,1-.19273-.02825.51721.51721,0,0,0-.1619.063.83308.83308,0,0,1-.11637.0554A1.47618,1.47618,0,0,0,5.1,3.44314v.00793H4.64111l.32069.11028-.02889.06953-.619-.26889a.74115.74115,0,0,1-.125-.0209A1.23413,1.23413,0,0,0,5.1,3.69087v.36848a2.461,2.461,0,0,1-.50095-.07609A5.20324,5.20324,0,0,1,3.6,3.52136a2.13269,2.13269,0,0,0,1.5.6776v.03447A1.89939,1.89939,0,0,1,4.00021,4.0587,1.58646,1.58646,0,0,0,5.1,4.3772V6.961c-.01483.037-.0295.0744-.04363.113a.51855.51855,0,0,0-.16272.17613,4.11567,4.11567,0,0,0-.35843.88823c-.11133.356-.22.72249-.33195,1.07611a3.30275,3.30275,0,0,1-.303.72243c-.10291.16451-.205.33551-.30709.50635-.01174.01964-.01987.01688-.03115-.00289-.04388-.0769-.08785-.15393-.133-.2211-.0747-.11125-.15056-.12839-.22856-.031a1.09159,1.09159,0,0,0-.17759.30615c-.07857.20314-.155.41681-.23114.63162a3.67016,3.67016,0,0,1-.26227.61589q-.11162.18709-.21978.39967a1.85378,1.85378,0,0,0-.16556.51213,3.01218,3.01218,0,0,0-.04742.56441L3.45975,13.181A.21447.21447,0,0,1,3.46,13.1562c.18468-.00143.36936-.00348.554-.00181a1.83037,1.83037,0,0,1,.26364.03975l-.00107.03254a.503.503,0,0,1-.088.02662c-.17367.0198-.34747.03755-.52127.05517-.43446.04406-.869.08638-1.30333.133a.98572.98572,0,0,0-.17272.051l.00192.03938a.743.743,0,0,0,.15123.03032c.2956-.00178.59119-.008.88678-.01329.64416-.01157,1.28832-.02509,1.9325-.03333a1.552,1.552,0,0,1,.25229.03731l-.001.05859c-.37445.03609-.749.0707-1.12333.10869a4.25781,4.25781,0,0,0-1.113.1924c.86476.06517,1.72722-.10069,2.59232-.03927-.32047.14443-.66615.10837-.99581.27459.36044.31057,3.33617.0928,3.69733-.1718a1.63435,1.63435,0,0,0-.17839-.02425c-.42957-.00883-.85924-.01081-1.28872-.02455-.19868-.00635-.39708-.0327-.59537-.054a.28885.28885,0,0,1-.08649-.04325l.00359-.04848,2.96321-.3737-.00095-.0531a2.12093,2.12093,0,0,0-.28256-.04367c-.68768-.01579-1.37545-.02467-2.06313-.04-.40748-.00906-.81491-.02391-1.22224-.04132a.72894.72894,0,0,1-.17379-.05233l-.00024-.03924a.37229.37229,0,0,1,.09-.04185,3.77724,3.77724,0,0,1,.50064-.07089c.61932-.01587,1.23882-.01892,1.85824-.02812.51045-.00758,1.02093-.01384,1.5313-.028a3.081,3.081,0,0,0,.373-.05462C9.88783,12.873,9.87791,12.86042,9.86647,12.85663ZM7.12365,1.2571a2.73694,2.73694,0,0,0-2.2421.10636A2.01014,2.01014,0,0,1,7.12365,1.2571Zm.86016,9.07722a.13219.13219,0,0,1,.1888-.01752.95928.95928,0,0,1,.21806.32734c.15465.31685.31066.62953.4657.94523a1.29376,1.29376,0,0,1,.068.15882c.02417.07147.01665.12849-.01995.1487a.36074.36074,0,0,1-.09372.02787,1.36438,1.36438,0,0,1-.70157-.4223,1.0347,1.0347,0,0,1-.20124-.32536A1.01261,1.01261,0,0,1,7.98381,10.33432ZM7.585,12.471c-.318.01475-.636.03173-.954.04855a.81257.81257,0,0,0,.04893-.35214L6.61032,11.739c.05833.06311.11932.12485.18493.18417.07271.06575.14756.13029.22381.194A2.10944,2.10944,0,0,1,7.585,12.471Zm-3.0495.12922a.81717.81717,0,0,1-.07911-.05525c.07575.01586.14831.0352.22256.04581.02063.003.041.00506.06138.00677C4.67206,12.59875,4.60378,12.59983,4.5355,12.60024Zm-.31141-.31768-.00425.01569c-.01009.06079.09065.18958.22376.30209q-.28929.00045-.57866-.00534c.04072-.03026.08244-.05915.12427-.087q.08087-.09558.15827-.194c.05743-.07344.10962-.15074.15966-.22963a.57167.57167,0,0,0,.07947.17058,2.11288,2.11288,0,0,0,.154.18129A1.118,1.118,0,0,1,4.22409,12.28256Zm1.53192.28069a.32734.32734,0,0,0,.02381-.05385.18446.18446,0,0,0-.04729-.20267.7969.7969,0,0,1-.26467.26887q-.27567.011-.55139.01823a.57589.57589,0,0,0,.273-.10861.69978.69978,0,0,0,.10066-.098.67213.67213,0,0,1-.46315.01364.51367.51367,0,0,1-.32635-.27356.85054.85054,0,0,0,.23148.13026.50967.50967,0,0,0,.31339.02072.35938.35938,0,0,0,.10429-.04884.07742.07742,0,0,0-.00739-.14069.3438.3438,0,0,0-.0937-.03283,1.79453,1.79453,0,0,1-.36418-.103.37456.37456,0,0,1-.14744-.11191.61569.61569,0,0,0,.4579-.02143c-.04516-.02587-.08943-.047-.1279-.07416a1.70028,1.70028,0,0,1-.21566-.1639.32971.32971,0,0,1-.02436-.02681l.00485-.03484c.01021-.05769.02221-.11509.036-.16378a.22609.22609,0,0,0,.17.15083.378.378,0,0,0,.18818-.00557.08383.08383,0,0,0,.04152-.148.66025.66025,0,0,1-.2178-.3055l.03319-.0365a2.44269,2.44269,0,0,0,.2533-.3421.30257.30257,0,0,0,.04262.24827.62717.62717,0,0,0,.10077.12023c.003-.03639.00359-.07308.00951-.10912a.494.494,0,0,1,.3984-.36407c.02248.01906.045.03783.06768.056.02025.01623.04064.03166.061.04731a.36308.36308,0,0,0-.06552.0282.30361.30361,0,0,0-.16423.28169.39629.39629,0,0,1,.20056-.06981.50586.50586,0,0,1,.26543.04086,1.21714,1.21714,0,0,1,.0578.18031l.00178.008a.31658.31658,0,0,0-.33249-.07769.193.193,0,0,0-.04584.02221.07951.07951,0,0,0,.01779.1492,1.56439,1.56439,0,0,0,.18112.0494.98007.98007,0,0,1,.35219.13349c.03757.02671.06995.05878.10727.0906a1.04619,1.04619,0,0,0-.14057-.01087.28477.28477,0,0,0-.10249.0278.05421.05421,0,0,0-.0247.092c.08319.11709.16887.23293.24927.3514a.4809.4809,0,0,1,.08954.23356.24027.24027,0,0,1-.11536.22309.879.879,0,0,1-.12513.06927.29353.29353,0,0,0-.15869-.48608c.01468.053.032.10171.04121.15147a.62925.62925,0,0,1-.04157.39279Q5.90981,12.55631,5.756,12.56325Zm-.3189-2.23975.02318.02525-.02854.01546a.80374.80374,0,0,0-.21052.15987l-.00544.00643c.02924-.05481.05794-.11306.086-.17522A1.30525,1.30525,0,0,1,5.43711,10.3235Zm.09451.14694.02214-.02664.0099.00933Zm.98162,2.05532a.63775.63775,0,0,0,.039-.06522l.00563-.0026a.315.315,0,0,1,.0065.06516Zm-.80905-5.1162a1.10152,1.10152,0,0,1,.26885.33313,8.44853,8.44853,0,0,1,.53528,1.14694,5.55154,5.55154,0,0,0,.71306,1.32717c.09.11657.17849.24136.26574.37054a.7661.7661,0,0,1,.076.16875.19318.19318,0,0,1-.01259.166.21572.21572,0,0,1-.05756.063.67274.67274,0,0,1-.36166.09582,1.29007,1.29007,0,0,1-.99467-.62711,3.70914,3.70914,0,0,1-.52518-1.04423c-.05363-.16-.10275-.33213-.14654-.51856a4.49909,4.49909,0,0,1-.12269-.76626,1.25709,1.25709,0,0,1,.062-.54732.45375.45375,0,0,1,.0448-.08265C5.52934,7.37954,5.61355,7.34446,5.70419,7.40956ZM3.60445,11.14689a.94641.94641,0,0,1,.05375-.16874c.06171-.12918.12425-.254.18792-.37054a6.543,6.543,0,0,0,.50427-1.32717c.081-.28728.16454-.56564.25388-.81963.04027-.11448.08161-.22451.12465-.32731a1.11186,1.11186,0,0,1,.19013-.33313c.0641-.06511.12365-.03.18044.08522a1.41723,1.41723,0,0,1,.07553.63,6.23887,6.23887,0,0,1-.08677.76626c-.0242.1457-.05076.28246-.07927.41185a4.597,4.597,0,0,1-.39576,1.15094c-.21936.41811-.45437.6235-.70341.62711a.37465.37465,0,0,1-.25576-.09582.206.206,0,0,1-.0407-.06305A.26515.26515,0,0,1,3.60445,11.14689Zm-.96264.99211a1.6178,1.6178,0,0,1,.04809-.15882c.10964-.3157.22-.62839.32933-.94523a1.04648,1.04648,0,0,1,.15421-.32735c.04494-.04909.08923-.04047.13351.01754a1.38966,1.38966,0,0,1,.0537.84277,1.161,1.161,0,0,1-.14231.32536.96889.96889,0,0,1-.49614.42229.20242.20242,0,0,1-.06627-.02786C2.63,12.26749,2.62472,12.21047,2.64181,12.139Zm.93279.75978-.01139.00043a.91739.91739,0,0,1,.09234-.11886l.915.08716-.06912.00618C4.19177,12.89476,3.88308,12.891,3.5746,12.89878Zm3.59986-.13636L7.17439,12.728a2.76682,2.76682,0,0,1,.51328-.13706.58812.58812,0,0,1,.07378.146.128.128,0,0,1,.006.03588c-.16034.00229-.3207.0039-.481.00656A.65662.65662,0,0,1,7.17446,12.76242Z"/>
      </g>
    </g>
  </g>
</svg>
