<svg xmlns="http://www.w3.org/2000/svg" width="11.60387" height="7.44255" viewBox="0 0 11.60387 7.44255">
  <g id="Calque_2" data-name="Calque 2">
    <g id="Calque_1-2" data-name="Calque 1">
      <g>
        <g>
          <path d="M1.46553,5.7321H3.39087c-.10785-.27525-.55925-.3119-.45228-.69559-.2049-.08122-.43192-.169-.65719-.26111a.75363.75363,0,0,0-.69636.03917.54053.54053,0,0,1-.21048.06914c.27454-.38674.711-.29653,1.10372-.37486-.37343-.45159-.77678-.1515-1.18755-.03344a.69882.69882,0,0,1,.837-.41118c.2245.03706.4561.14417.69984-.07717-.11438-.17222-.22569-.35336-.35079-.52442a3.1282,3.1282,0,0,1-.36688-.55446A1.96739,1.96739,0,0,1,2.326,3.0885Q3.42246,4.29688,4.51175,5.5117c.14855.1666.29216.217.46215.08549V4.92077l-.302.13077A.454.454,0,0,0,4.162,4.7992c-.04039.008-.12959-.09978-.15317-.16876a1.80739,1.80739,0,0,1-.0588-.3565c-.02205-.174-.05278-.33808-.30907-.31071l.016-.069,1.87709-.31343L4.39324,2.30536l.042-.04984a4.32229,4.32229,0,0,0,.3809.28385.54251.54251,0,0,0,.30322.09727q2.26992-.25162,4.53716-.527a.47215.47215,0,0,0,.27718-.15028C10.39226,1.41863,10.8412.86973,11.2891.3201A3.76058,3.76058,0,0,0,11.50146,0l.10241.09019a1.83637,1.83637,0,0,1-.09006.17236c-.7144,1.08182-1.42748,2.16454-2.1488,3.24173-.08685.12971-.11726.21539-.01231.35554a3.95331,3.95331,0,0,1,.53765,1.63736c.09672.44924.1285.47918.589.44715a4.40361,4.40361,0,0,1,.56394-.01493,2.11105,2.11105,0,0,1-1.1305.085,1.89344,1.89344,0,0,0-.483.03821c-.16474.01314-.35873.08355-.4898.02208a2.87489,2.87489,0,0,0-1.81611-.08883c-.079.01446-.16005.01775-.24014.02637a.24458.24458,0,0,1-.27454-.11168.27385.27385,0,0,0-.4008-.06918.64892.64892,0,0,1-.3901.05162,1.43779,1.43779,0,0,0-.96091.05048,1.06173,1.06173,0,0,1-.47391.0382c-.53686.00714-1.07415.02326-1.61055.00889-.43783-.01173-.87462-.06218-1.31188-.09546Zm5.90175-.50123L9.19283,2.92949h-3.914l-.01481.0752c.13676.14462.26782.29542.4138.43006a.2701.2701,0,0,0,.19442.04683c.37546-.04619.75138-.09269,1.12381-.15809.33337-.05853.66242-.1416,1.04708-.22556-.55762.39953-.43687,1.12-.87632,1.53508-.11267-.08491-.2092-.157-.305-.23-.09753-.07435-.19436-.14963-.31444-.24219A2.445,2.445,0,0,0,7.36728,5.23087Zm1.34265.50747.05031.039c.12065-.14541.23224-.29971.36419-.434a.69.69,0,0,0,.19573-.61792,1.19328,1.19328,0,0,0-.39025-.80407c-.06469-.05419-.15742-.15762-.19706-.14123a.45415.45415,0,0,0-.17672.206c-.08056.14541-.13393.30659-.22042.44787-.20175.32959-.4182.65015-.62437.97708a1.54915,1.54915,0,0,0-.09526.21622l.044.02059.65176-.83161.0407.0313L7.7616,5.701c.15621-.036.23915-.06249.324-.07266.09213-.011.18621-.00457.27919-.01.08477-.005.18964.013.24964-.02968a3.92142,3.92142,0,0,0,.37912-.34368l.01785.01593ZM5.08043,2.73083l-.00739.053a1.516,1.516,0,0,0,.3177.06629c1.15866-.00651,2.3179-.046,3.47563-.01867.4618.01088.654-.23936.89431-.63169ZM7.1507,5.38019c-.38492-.29459-.534-.90809-1.20607-.83489L5.44775,5.57a.45274.45274,0,0,0,.56626.07314.69286.69286,0,0,1,.64624-.05684A.35049.35049,0,0,0,7.1507,5.38019ZM4.135,4.61823c.18424.05949.33147.11.48064.15392a.53909.53909,0,0,0,.22487.04139c.16778-.02872.25341.01192.28537.19374a3.042,3.042,0,0,0,.15181.45374l.06781-.01285L5.909,4.32136l.35842.07961c-.11279-.19076-.15149-.33182-.39741-.2083a.89877.89877,0,0,1-.5011-.018A1.27332,1.27332,0,0,1,5.06,4.01713l.10294.55722-.04269.01037L4.914,4.26114l-.15308.21039.00141-.075L4.115,4.29067Zm3.33485-.99444L7.392,3.58734a.68754.68754,0,0,1-.75719.16512c-.22933-.11154-.36048-.03944-.45892.18356l.17013.19263.01-.06743a1.16764,1.16764,0,0,1,.43388-.00591c.13619.053.23723.19626.404.34522Zm-2.66643.328c-.20173-.01635-.35332-.03624-.50487-.036-.04208.00007-.119.06075-.11826.09211a.2335.2335,0,0,0,.08323.15573C4.48669,4.34149,4.6189,4.18339,4.80338,3.95182Zm-2.35125.74445c.23622.21556.40523.26081.55573.1149.05489-.05322.04486-.17337.05588-.2238Zm2.8363-.7556c.25972.27374.4.27636.59275.02557C5.7005,3.78316,5.50966,3.848,5.28843,3.94067ZM3.46214,5.683c.18754.02522.31262.03895.43656.0595.15268.02532.16886-.06731.13173-.16939a.76209.76209,0,0,0-.151-.18563ZM7.37782,3.41832l-.63732.15241A.40508.40508,0,0,0,7.37782,3.41832Z"/>
          <path d="M0,5.76371H1.07819A1.10787,1.10787,0,0,1,0,5.76371Z"/>
        </g>
        <path d="M10.372,6.40105c-.042-.01007-.08413-.02-.12675-.02651A7.12016,7.12016,0,0,0,8.91247,6.328c-.36765.013-.73578.01294-1.10371.01738A.88671.88671,0,0,1,7.6975,6.3331l-.00006-.02481c.26089-.08624.5468-.07162.8024-.17914-.128-.00734-.2542-.011-.38018-.00676-.91479.03067-1.82932.07523-2.74435.09073-.71412.01209-1.42885-.01158-2.14331-.01869-.15481-.00154-.30965-.00023-.46447-.00023l-.0014.05255,2.35684.163c-.33491.02036-.66853.0156-1.00194.02169q-.50547.00924-1.01056.03651a6.6966,6.6966,0,0,0-.98156.09424.0354.0354,0,0,0,.02762.01611c.43558.01315.8711.03053,1.30679.03752.36467.00585.72954-.0024,1.09429,0a2.46107,2.46107,0,0,1,.26193.02867L4.81847,6.668a.6459.6459,0,0,1-.08741.0192c-.17255.01429-.34521.02709-.51788.0398-.43164.03178-.86337.06231-1.29487.096a1.27175,1.27175,0,0,0-.17159.03679l.0019.02841A.98762.98762,0,0,0,2.89887,6.91c.29368-.00129.58735-.00576.881-.00959.64-.00834,1.27994-.01809,1.91994-.024a2.09235,2.09235,0,0,1,.25065.02691l-.001.04227c-.372.026-.74412.051-1.116.0784a5.69564,5.69564,0,0,0-1.1058.13878c.85914.047,1.716-.07263,2.57547-.02833-.31839.10419-.66182.07818-.98934.19808a10.93784,10.93784,0,0,0,3.67331-.12393c-.06878-.007-.12294-.01668-.17724-.01749-.42677-.00637-.85366-.0078-1.28034-.01771-.19739-.00458-.3945-.02359-.5915-.03892a.34.34,0,0,1-.08593-.0312l.00357-.035,2.944-.26956L9.79866,6.7604c-.09357-.01092-.187-.02993-.28072-.0315-.68322-.01139-1.36651-.01779-2.04973-.02882-.40483-.00654-.80961-.01725-1.2143-.02981a.93819.93819,0,0,1-.17266-.03774L6.081,6.60422A.44608.44608,0,0,1,6.17046,6.574c.16559-.01949.33131-.048.4974-.05114.6153-.01144,1.23077-.01364,1.84616-.02028.50714-.00547,1.0143-.01,1.52135-.0202.12374-.0025.24706-.02571.37058-.0394C10.39324,6.41286,10.38339,6.40378,10.372,6.40105Z"/>
      </g>
    </g>
  </g>
</svg>
