<svg xmlns="http://www.w3.org/2000/svg" width="11.81588" height="9.9699" viewBox="0 0 11.81588 9.9699">
  <g id="Calque_2" data-name="Calque 2">
    <g id="Calque_1-2" data-name="Calque 1">
      <g>
        <g>
          <path d="M5.92912,9.85461c.36842.10423.49931.0684.6041-.16262.03319.00621.0678.01234.10219.01919a1.01637,1.01637,0,0,0,.48153-.01758c.22221-.06292.2711-.1372.22345-.34251.08279-.00982.167-.01495.248-.0305A.4419.4419,0,0,0,7.906,9.13107c.103-.17492-.02835-.35694-.27466-.35394a1.68523,1.68523,0,0,0-.35636.07456.566.566,0,0,1,.63228-.09086.29635.29635,0,0,0,.17106.02619A2.98206,2.98206,0,0,0,8.55174,8.646a.31968.31968,0,0,0,.20976-.27583A.24486.24486,0,0,0,8.579,8.11071a.38886.38886,0,0,0-.37084.04972.37685.37685,0,0,1-.06272.04683.3223.3223,0,0,1,.29544-.20189.4546.4546,0,0,1,.41426.1448.34972.34972,0,0,1-.04657.4933.85093.85093,0,0,1-.54217.21519c-.06975.00573-.14.0074-.21318.01109.01052.06661.01672.13.03287.19179.00425.01623.037.03534.06059.03969a2.9556,2.9556,0,0,0,1.02475.0434A.70192.70192,0,0,0,9.7718,8.7234c.03129-.0842.00464-.155-.09568-.21521-.08264.22957-.29537.25248-.55642.21939.04085-.00868.06848-.01612.09687-.02017.03277-.00466.0666-.00469.09931-.00956.16412-.02444.26829-.13145.24157-.25186-.015-.06751-.052-.11623-.15816-.09688-.06795.01239-.14981.011-.16645-.05141a.157.157,0,0,1,.06005-.12638c.073-.06693.0638-.13825-.0415-.17546a.4784.4784,0,0,0-.11825-.01954c-.04013-.0032-.081-.0007-.134-.0007.01933-.0818.11715-.15814.02451-.234a.38589.38589,0,0,0-.14859-.06994c-.11642-.02787-.16283-.00228-.21363.10748a.38441.38441,0,0,0-.50662.0402,1.27967,1.27967,0,0,0-.2077-.0696c-.03622-.0061-.11013.01835-.11828.04036A.30031.30031,0,0,0,7.826,7.948c.00674.035.05833.06859.05459.10019-.01648.13936.00589.28745-.11711.40771a.56173.56173,0,0,1-.05221.03739c.19958-.26886.03105-.48109-.31114-.51148l.0016-.01648c.19069-.18745.12313-.39175-.16175-.48781a.39469.39469,0,0,1-.26624-.19236.62515.62515,0,0,0-.567-.237c-.03627.00088-.0724.00531-.10721.008-.10209-.25-.26946-.3047-.4525-.16231a.96775.96775,0,0,0-.143-.15013c-.07828-.05511-.15669-.03163-.2238.04984-.02714-.08966-.08226-.15541-.18318-.13683a.81317.81317,0,0,0-.21.10541L4.8868,6.723l-.02371.11846.01835.00267a.05729.05729,0,0,1-.00845.01577c-.02688.02666-.05441.0529-.08173.07927.05369.00508.10738.01023.16112.015l.01-.00351c.25115-.10876.3371-.08954.4736.10922A.63591.63591,0,0,1,5.89918,6.99a2.34883,2.34883,0,0,1,.32808.15394.46574.46574,0,0,0,.12938.05427c.34292.046.56322.28468.505.55928a.12444.12444,0,0,0,.0325.1276.35249.35249,0,0,1,.04892.13344l-.17441-.18324a.85144.85144,0,0,0,.00769-.14462c-.0179-.1994-.21408-.34317-.47566-.36751a.35147.35147,0,0,1-.18549-.074.49534.49534,0,0,0-.75078.07257.09534.09534,0,0,1-.111.04631,1.42441,1.42441,0,0,0-.23253-.00867.33.33,0,0,0-.332.22655l.0872.02888a.12285.12285,0,0,1-.0176.022.19182.19182,0,0,0,.00406.33273.63189.63189,0,0,0,.75819-.00448c.01244-.01.01566-.02725.02577-.04593.167.19934.09308.35114-.2814.63284A1.14773,1.14773,0,0,0,6.108,8.058a.32333.32333,0,0,0-.16854-.4371.4225.4225,0,0,0-.5534.11987.401.401,0,0,1,.50115-.21137.42811.42811,0,0,1,.36465.51747.727.727,0,0,1-.35814.42309,1.881,1.881,0,0,1-1.35456.236,7.11093,7.11093,0,0,1-.86625-.21807A5.00657,5.00657,0,0,0,2.464,8.22437c.10608,0,.21254-.00445.31813.0012.11432.00613.22857.01839.3415.03408.10852.01507.21531.038.34.06051-.0154-.02469-.02251-.03886-.03249-.05163C3.35,8.16458,3.38,8.11409,3.53,8.07826c.04-.00956.06844-.04949.10218-.07547-.03264-.02617-.06008-.06728-.09888-.07581-.1376-.03026-.17564-.10571-.08678-.19419a.26719.26719,0,0,1,.023-.01915c.16315-.12911.16446-.15632-.0239-.26912A1.22722,1.22722,0,0,0,3.158,7.31705a.455.455,0,0,0-.20912.02184c.20178.1201.29788.25874.2133.45a.3247.3247,0,0,0-.19428-.2998.60431.60431,0,0,0-.43814.00608c.02855-.13717-.04341-.20527-.19841-.2244a.35947.35947,0,0,0-.33663.10573A.21551.21551,0,0,1,1.96927,7.363c-.04383-.035-.08328-.095-.13186-.10005-.08444-.00875-.11818.05743-.13965.11637-.01312.036-.02546.07217-.04042.11471l-.10888-.09379-.11318.115-.017-.00723.13593-.17111c-.03924-.24361.05643-.38689.32141-.44582a.29616.29616,0,0,1,.381.16008.24611.24611,0,0,1,.25937.0094.40577.40577,0,0,0,.18215-.00339c.1947-.0184.26259.042.21135.1984a.61085.61085,0,0,0,.08611.003.7576.7576,0,0,1,.56679.18c.147.11376.14541.19317-.00218.304-.01306.0098-.024.02137-.04487.04014.02918.01392.05158.02685.07622.036.14706.05454.181.1662.08791.269-.03589.03961-.09152.10265-.07454.131.044.07333.10817.17056.19126.19182a6.069,6.069,0,0,0,.88246.16945.96722.96722,0,0,0,.81044-.2774.18372.18372,0,0,0,.04518-.229c-.02067.00714-.03943.01253-.05692.01984a.8132.8132,0,0,1-.79356-.12554.24984.24984,0,0,1-.05632-.30722c-.34185-.2473-.29606-.42041.169-.62124-.09818-.06113-.14629-.12834-.03312-.20882a.04215.04215,0,0,0,.01207-.0236c.04846-.1678.09612-.18749.30141-.12415a.30607.30607,0,0,1,.40807-.01112c.01153.00636.02812.01668.03766.01413a.30077.30077,0,0,1,.33217.1354.3143.3143,0,0,1,.49005.1304.11011.11011,0,0,0,.07879.05123.72216.72216,0,0,1,.66544.34676.16584.16584,0,0,0,.096.04613c.29481.06328.42617.20317.404.44389-.00739.08036.06547.09338.12849.12687a1.82109,1.82109,0,0,1,.03856-.18121c.02666-.08353.09415-.10595.19311-.07029a1.05469,1.05469,0,0,0,.13235.04522.11532.11532,0,0,0,.08014-.01174c.012-.01.004-.04339-.00742-.06151-.07423-.118-.07278-.19883.00955-.26738a.31689.31689,0,0,1,.34556-.01638c.05243.021.10254.035.14233-.01756a.30764.30764,0,0,1,.44114-.07445.29914.29914,0,0,0,.223.06094.10988.10988,0,0,1,.12659.10961c.00347.03552.01036.07086.01693.10614.01614.08661.033.17313.053.27784a.62338.62338,0,0,1,.42019.25009.31275.31275,0,0,1-.06125.43662.66308.66308,0,0,0,.15463.06089,3.13534,3.13534,0,0,0,1.701-.26528.47027.47027,0,0,1,.08888-.03314,2.38574,2.38574,0,0,1-.754.36783,3.12966,3.12966,0,0,1-1.15851.11945c-.07355-.00559-.10759.00423-.14216.061a.851.851,0,0,1-.74321.3671c-.14988.0066-.3006.00112-.45105.017a4.0299,4.0299,0,0,0,1.38549.06757.92191.92191,0,0,0,.67362-.38239l.0251.01108a1.23531,1.23531,0,0,1-.12138.20932,1.24958,1.24958,0,0,1-.85756.37659A3.438,3.438,0,0,1,8.56981,9.4697a1.80669,1.80669,0,0,0-.97629.073.13674.13674,0,0,0-.06713.04153.76272.76272,0,0,1-.74267.25732c-.0403-.00187-.08-.017-.11994-.01673a.161.161,0,0,0-.09087.02435A.49728.49728,0,0,1,5.92912,9.85461ZM9.2112,7.47578a2.02227,2.02227,0,0,0-.24809-.14034.17637.17637,0,0,0-.22812.0528c-.06906.10342-.14216.12062-.26633.06265a.23079.23079,0,0,0-.27066.01152.13155.13155,0,0,0,.01059.21041c.12324-.01094.23042-.01933.3371-.03072A.18972.18972,0,0,0,8.622,7.618a.40733.40733,0,0,1,.60152.16754c.01615.05512.04753.07144.10715.0527.03575-.01124.09643-.04186.093-.05016a.38139.38139,0,0,0-.07-.09081.71452.71452,0,0,0,.00883-.09677.70676.70676,0,0,0-.01584-.098c-.0034-.01854-.00148-.04111-.01443-.05392a.08538.08538,0,0,0-.05952-.00225A.32888.32888,0,0,0,9.2112,7.47578Zm-4.55876.10788a.39294.39294,0,0,1,.41086-.30843.30208.30208,0,0,0,.27011-.12584c.03274-.04755.03991-.08376-.00383-.11681a.39891.39891,0,0,0-.16142-.08591.20073.20073,0,0,0-.15383.04443.35376.35376,0,0,1-.20846.13238.81446.81446,0,0,0-.25362.13106C4.43359,7.36265,4.4829,7.50562,4.65244,7.58366ZM1.62687,7.33659l.03585-.0549c.08281-.12547.17108-.15356.34354-.115a.21024.21024,0,0,0,.09233-.009.55822.55822,0,0,1,.57852.13612.17575.17575,0,0,0,.06724.0255c.03911-.06.10666-.12277.1028-.18248-.00523-.081-.10549-.04941-.16954-.037a.35144.35144,0,0,1-.25516-.01534.12729.12729,0,0,0-.08074.002c-.12725.04007-.13345.036-.19783-.06553A.16763.16763,0,0,0,2.04154,6.953C1.78386,6.91633,1.512,7.13089,1.62687,7.33659ZM9.68856,8.46614c.191-.04321.24427-.12135.20431-.28613a.41714.41714,0,0,0-.41923-.25971l.04459.30813A.24821.24821,0,0,1,9.68856,8.46614Zm-1.353.77377L8.0607,9.163,7.984,9.2819Z"/>
          <path d="M6.80388,9.25533c-.08649.06053-.16835.12828-.2603.18033A3.10665,3.10665,0,0,1,5.311,9.7914a5.05929,5.05929,0,0,1-2.37175-.32667A3.72077,3.72077,0,0,0,1.437,9.18545a2.93673,2.93673,0,0,0-.43008.03929c-.1388.02629-.2721.07814-.418.10491.09011-.04815.17687-.1032.27093-.14316a2.658,2.658,0,0,1,.9234-.15712,3.01913,3.01913,0,0,1,1.121.17706,7.16166,7.16166,0,0,0,1.62622.3697,4.54926,4.54926,0,0,0,1.79194-.13724c.16182-.05051.31364-.1292.47-.195Z"/>
          <path d="M7.86186,8.28457a2.24314,2.24314,0,0,1-.14283.24275,1.46322,1.46322,0,0,1-.54828.40484,3.86767,3.86767,0,0,1-2.466.25938c-.22985-.04408-.45623-.10215-.67967-.16408-.30678-.085-.60923-.17987-.90852-.29146.30787.05306.61674.10273.92339.15989a7.79448,7.79448,0,0,0,1.737.16936,4.14383,4.14383,0,0,0,1.397-.29288A1.57126,1.57126,0,0,0,7.86186,8.28457Z"/>
          <path d="M.52362,9.07c.07675-.06718.14844-.14024.23108-.20056A2.21642,2.21642,0,0,1,2.16192,8.4737a6.203,6.203,0,0,1,1.61313.33358c.42645.12666.85368.25821,1.29028.34707a2.479,2.479,0,0,0,1.80385-.26577c-.03725.03062-.072.06434-.11213.09139a2.34893,2.34893,0,0,1-1.54954.35632,8.05487,8.05487,0,0,1-1.629-.38413A10.22857,10.22857,0,0,0,2.408,8.65808,2.32656,2.32656,0,0,0,.52362,9.07Z"/>
          <path d="M0,9.04423a.92613.92613,0,0,1,.5667-.83761,1.90628,1.90628,0,0,1,.84459-.18927,3.10192,3.10192,0,0,0,.44205-.02505.76275.76275,0,0,0,.29654-.12366.18327.18327,0,0,0-.008-.29594A.32807.32807,0,0,0,1.795,7.553c-.08455.04932-.10765.11552-.086.2465a.18961.18961,0,0,1,.04365-.29263.44076.44076,0,0,1,.44312-.01854.29164.29164,0,0,1,.02875.50428.96364.96364,0,0,1-.56241.15994c-.18112.009-.36531.00265-.54306.02673a1.19433,1.19433,0,0,0-1.09674.80115C.01554,9.00181.00747,9.023,0,9.04423Z"/>
          <path d="M.259,9.02629C.58719,8.245,2.53975,7.97672,3.295,8.6058a3.30924,3.30924,0,0,0-1.61877-.2A2.25765,2.25765,0,0,0,.259,9.02629Z"/>
        </g>
        <path d="M10.37012,2.66172a2.28016,2.28016,0,0,1-.51685-.98238.66378.66378,0,0,0-1.074-.35475,1.31708,1.31708,0,0,1-.25445.13632c-.2169.07515-.439.13767-.659.20529l.03963.09281-.51525-.21312A1.08582,1.08582,0,0,0,6.87773.26079,1.36907,1.36907,0,0,0,5.33825.21407a.491.491,0,0,1-.23634.0674C4.41575.26891,4.21253.42338,4.10132.97629c-.18777.16162-.29186.3193-.43479.35859-.22519.06189-.55907.1437-.703.04362C2.174.82944,1.72159.94723,1.52217,1.816,1.13434,1.8109.75186,1.9.67479,2.28208c-.06119.30334-.29016.77287.39723.81337.02688.00158.04919.06161.07446.09386a.85978.85978,0,0,0,.84039.29307.95966.95966,0,0,1,.35458.10919c.00351-.05411.009-.13921.00853-.13139a2.27735,2.27735,0,0,1,.74787.232A1.47367,1.47367,0,0,0,3.8981,3.998l.06147.74006.15666.21217a1.82407,1.82407,0,0,1-.2772.169.70775.70775,0,0,1-.21825.02374c.02366.27246.03463.51329.069.75312.02149.14972.07865.29231.26959.23338a.59383.59383,0,0,1,.16774,0c-.0915.442-.0915.442.08437.56072-.16164-.23382-.00731-.39526.04744-.5704a.54286.54286,0,0,0-.05-.53133c-.018.24573.00542.51943-.34016.41333l-.09247-.69174.68613.03261-.18325-.26688.11885-.58042L4.106,4.62191l-.06246-.60919c.10932.00911.21858.0149.326.02259.2461.0176.43045-.03783.46917.24627.00084.0062.03632.00844.07092.01575L4.8612,4.02306l.737-.42925.75921.52657L6.3378,3.90327c.22807-.0614.41406-.105.56734-.13349a.40174.40174,0,0,0-.157.36678c.1306-.1728.23956-.38311.47976-.16343l-.24747.54522-.56058-.30563.02839.27094-.37253.37682.30467.027-.35069.7083-.21961-.04043-.16413.52835.03937.01554L5.89451,5.72l.17123.08591.49207-.94346L6.526,4.64259a2.00616,2.00616,0,0,1,.31207-.01008.73538.73538,0,0,1,.19433.0722c.10819-.20951.21217-.39061.296-.58061.05232-.11861.07136-.24664-.1166-.28182a.59938.59938,0,0,1-.1408-.06885l.03435-.03465c.40979-.0477.49756.06051.57268.23749a2.20868,2.20868,0,0,1-.28927.39926c.05593.02282.10292.02705.1226.05244a.72907.72907,0,0,1-.06076.7755,1.85252,1.85252,0,0,0-.28031.27557,2.70158,2.70158,0,0,0-.183.435l.06808.02833a.68051.68051,0,0,1,.39636-.53144,2.06022,2.06022,0,0,0,.00216.27976.52691.52691,0,0,1-.26314.50133c-.23009.10088-.25693.1562-.21179.35327l.38825-.43179c.05739.1767-.01346.32534.14821.43581a.88243.88243,0,0,1,.2762.57966l.02607-.56312H7.62064c.03712-.20487-.34011-.4105.02-.57833a1.16287,1.16287,0,0,1,.05-.8635.65472.65472,0,0,0,.035-.57879c-.13432-.31022-.14422-.33287.11613-.54428l.08107-.01284a4.06946,4.06946,0,0,1,.19145.54485c.03144.14286-.02378.30443.00583.44814a.68055.68055,0,0,1-.18057.5709,1.10637,1.10637,0,0,0-.10581.27694c.11212-.10571.163-.26741.26745-.31754.194-.09312.16158-.24269.17435-.39183.005-.05806.00949-.11616.0163-.19986l.3847.20476a2.28269,2.28269,0,0,0-.06069.31925.21677.21677,0,0,0,.06094.17119.51558.51558,0,0,1,.269.51731.44749.44749,0,0,0-.2279-.63643l.06317-.6347c-.02428-.00513-.0369-.00737-.04929-.01049A2.347,2.347,0,0,1,8.27972,4.724c-.03952-.01914-.02024-.17233-.01713-.26368.00393-.11554.0189-.2307.02911-.346l-.05993.03749a1.84956,1.84956,0,0,0-.20361-.17948A1.5497,1.5497,0,0,0,8.5099,3.8436a5.62627,5.62627,0,0,0,.80382-.61226c.29994-.08755.67152-.18755,1.03249-.31308C10.38722,2.904,10.41554,2.70479,10.37012,2.66172Zm-7.0609-.61608c-.02439.04163-.61572-.44528-1.17949-.251-.30939.10661-.45981.36644-.49663.33755-.0451-.03539.11487-.47666.46115-.61451C2.651,1.296,3.3365,1.99906,3.30922,2.04564ZM7.13484.9894A1.23106,1.23106,0,0,0,5.68226.81661.791.791,0,0,1,6.223.38272a.78707.78707,0,0,1,.6598.2838c.09074.08919.17462.1968.2616.29606Zm1.38442.90388c.02305-.02119.04582-.04323.0692-.06332q.0384-.033.07771-.063A.79107.79107,0,0,1,9.1634,1.5648c.225.00817.39149.20433.47.56962A.87262.87262,0,0,0,8.51926,1.89328Z"/>
      </g>
    </g>
  </g>
</svg>
