<svg xmlns="http://www.w3.org/2000/svg" width="10.61916" height="8.77981" viewBox="0 0 10.61916 8.77981">
  <g id="Calque_2" data-name="Calque 2">
    <g id="Calque_1-2" data-name="Calque 1">
      <g>
        <g>
          <path d="M1.6658,5.20017c0,.03542-.00059.07084.00022.10623.0005.02167-.00846.03982-.02887.04085-.02557.00128-.03354-.02016-.03225-.04276.00382-.06692.00884-.13376.01276-.20067.0009-.01532.00978-.03572-.01637-.03975-.02872-.00443-.029.0173-.02959.03577-.00223.06517-.0033.13037-.00516.19555-.00065.02237.00046.05059-.031.04876-.029-.0017-.02375-.02951-.02208-.04885q.01326-.15289.02886-.3056c.003-.02965.00939-.05474-.0245-.07663a.04677.04677,0,0,1,.01769-.08456c.031-.00767.03759-.023.03721-.05057-.001-.06894-.00026-.1379-.00044-.20686,0-.01663.00231-.0349-.02184-.03819-.04221-.00576-.05336-.03878-.057-.07258a.58486.58486,0,0,1,.01945-.24861.06475.06475,0,0,1,.07773-.05336,2.38015,2.38015,0,0,1,.28641.04487.08384.08384,0,0,1,.07364.08241.84065.84065,0,0,1-.006.18364c-.00241.02216-.00838.04792-.03519.05105-.03915.00457-.04123.02854-.04055.05915.0012.054-.00009.1081.00015.16215.00017.0376-.00894.07549.04075.09751a.04284.04284,0,0,1,.00168.06814c-.03774.02709-.02388.05858-.01844.08967.01764.10064.03678.201.056.30138.0036.01883.01132.04007-.01581.044-.02372.00345-.03118-.017-.03356-.03637-.00661-.05352-.01009-.10749-.01871-.16065-.00459-.02831.00808-.081-.02887-.07755-.04044.0038-.01432.05173-.01285.0796.00264.05009.01119.09985.01612.14987.00195.01981.00705.04715-.02146.04894C1.804,5.348,1.803,5.3211,1.802,5.2979c-.00265-.06513-.007-.13021-.00854-.19537-.00145-.06318-.04855-.03468-.07776-.03951-.03043-.005-.05593-.00035-.05216.04217.00278.03143.00054.06331.00054.095Zm.1615-.52c0-.0371-.00036-.07419.00013-.11128.00031-.02377-.00973-.03441-.03383-.02982a.523.523,0,0,1-.14967.00338c-.03044-.003-.039.007-.0383.03619.00148.06488.00252.12993-.00076.19469-.002.03922.01028.055.04951.0492a.22876.22876,0,0,1,.03334-.00027C1.82752,4.82217,1.82752,4.82217,1.8273,4.6802ZM1.731,4.92415c-.03915.00126-.07607-.01142-.07359.04556.002.0456.0133.06977.06357.06144.03075-.0051.07169.0152.07108-.04628C1.79158,4.93208,1.77286,4.9143,1.731,4.92415Zm-.105.054c-.00588-.01963.01552-.05322-.02738-.0529-.03318.00025-.02577.02755-.024.045.00221.02138-.01921.05861.02612.05864C1.6374,5.02892,1.61979,4.99657,1.62606,4.97819Zm.23869.01006c-.01311-.01761.014-.05936-.03063-.06219-.02744-.00173-.0194.024-.01481.03671.00815.02257-.01535.06215.02842.06568C1.87322,5.03051,1.86561,5.007,1.86475,4.98825Z"/>
          <path d="M2.70921,4.24672c0,.11342,0,.11341-.1108.11332-.124-.0001-.12406-.0001-.12612-.12517a.81008.81008,0,0,1,.02253-.25457c.01351-.04405.03183-.08842.08639-.089.05386-.00057.07591.04293.09038.08595A.8533.8533,0,0,1,2.70921,4.24672Z"/>
          <g>
            <path d="M1.7424,2.94636A2.69032,2.69032,0,0,1,2.262,2.88617c.10638.01233.198-.02743.30489-.01968.09812.00712.18419-.00008.23379-.10685a11.066,11.066,0,0,0,.48219-1.28628,1.87568,1.87568,0,0,0,.137-.52426C3.41508.8853,3.41258.82144,3.41115.75755l.005.03729a1.56647,1.56647,0,0,0,.10156.45029c.04179.09151.07161.18829.10678.28271q.20115.53994.40189,1.08a.05648.05648,0,0,0,.06133.044c.14169-.00024.2835.0001.42506.00554.33484.01285.66956.02873,1.00433.04338L5.517,2.70455c.036,0,.07215-.00151.10809.00024.27851.01363.557.02836.83548.04179.22169.01068.44345.0199.66517.03.1838.00834.36781.02665.55132.02261.16815-.00371.33583-.0306.50353-.049.06234-.00682.06257-.00925.02952-.06343-.20852-.3418-.41038-.68724-.60139-1.0389A3.74684,3.74684,0,0,0,7.383,1.25435C7.156.93525,6.9135.62677,6.70278.29661a.09292.09292,0,0,0-.08068-.042C6.55593.24937,6.48972.24442,6.42364.23827,6.03847.20237,5.65385.15873,5.268.13211,4.87045.10469,4.47133.1099,4.07282.10713,4.01506.10673,3.98988.09372,3.988.03887,3.98721.01412,3.983-.00371,3.94858.00066c-.109.01386-.21818.02773-.32773.03575-.0465.0034-.05933.02192-.05306.06211S3.55313.1506,3.516.15171C3.4744.153,3.43277.16184,3.39134.16065a.1058.1058,0,0,0-.0228.00168.10722.10722,0,0,0-.033-.0004C3.2077.17638,3.07964.19,2.95128.1985a.09887.09887,0,0,0-.096.07613c-.1209.3044-.24366.60812-.34742.91839-.01031.03084-.02358.04919-.06015.04588-.04829-.00437-.06876.02127-.08808.06212A11.90745,11.90745,0,0,1,1.5824,2.88646c-.01132.017-.01568.03229.01053.03629A.7003.7003,0,0,0,1.7424,2.94636ZM4.8892,1.31415a.35263.35263,0,0,1,.06038-.14324.21455.21455,0,0,1,.36582.03552.81253.81253,0,0,1,.05843.4157,2.15231,2.15231,0,0,1-.02649.22728c-.00673.04-.0251.04747-.06045.04622-.05495-.00195-.11-.00052-.165-.00052v.00038c-.05882,0-.11764-.00056-.17644.00027-.024.00033-.03938-.00571-.04371-.032A1.4594,1.4594,0,0,1,4.8892,1.31415Z"/>
            <path d="M5.09207,1.82225c.00744.00017.01488,0,.02233,0v-.0002c.02973,0,.05951-.00112.08918.00028.03762.00177.058-.00922.05932-.05234.00179-.05741.01314-.11449.016-.17192a.88667.88667,0,0,0-.03548-.33627.13292.13292,0,0,0-.12162-.10621.12908.12908,0,0,0-.13122.09254.37174.37174,0,0,0-.02029.06353,1.16917,1.16917,0,0,0-.009.38865C4.97658,1.85025,4.963,1.81922,5.09207,1.82225Z"/>
            <path d="M6.75107,3.83366a.14262.14262,0,0,0-.1468.0895.3503.3503,0,0,0-.02366.0679.96277.96277,0,0,0-.00739.37663c.015.10558-.00734.08785.10193.08958.01859.0003.03719,0,.05579.00009.03533,0,.07075-.00156.106.0005.03555.00207.05545-.00689.057-.04768.00149-.04056.01251-.08069.0154-.1213a.78479.78479,0,0,0-.03151-.35219A.14484.14484,0,0,0,6.75107,3.83366Z"/>
            <path d="M5.37324,3.83326A.14293.14293,0,0,0,5.23,3.92819a.64583.64583,0,0,0-.03979.27367,1.90441,1.90441,0,0,0,.0159.21159c.00406.03207.017.04585.05006.04418.039-.002.07823-.00013.11735-.00006.14064.00027.14549.00072.15924-.13989a.79271.79271,0,0,0-.02766-.38063A.14424.14424,0,0,0,5.37324,3.83326Z"/>
            <path d="M8.971,3.37261c-.01757-.021-.03466-.07018-.07676-.04014l-.01541.00942.04025-.19484h.117V3.00124H8.118l.00047-.00147c-.0561-.0074-.09792.00041-.12282.06258-.03035.07579-.0715.14728-.10853.22036-.02219.04382-.04543.08711-.0682.13063A.12079.12079,0,0,1,7.80711,3.351c.001-.097.00091-.19395.00384-.29085.001-.03464-.01127-.045-.04486-.045-.11367,0-.22717-.00554-.34074-.01158-.38514-.02048-.77045-.03793-1.1557-.05632-.39269-.01875-.78544-.03641-1.17808-.05611-.34629-.01736-.69285-.02534-1.03942-.03311a.063.063,0,0,1-.06952-.05372C3.94245,2.67292,3.46,1.40009,3.46,1.40009s-.51132,1.35779-.59983,1.49559a.16841.16841,0,0,0-.02227.05394,10.81019,10.81019,0,0,0-1.17575.15879.08249.08249,0,0,0,.02941.07059L1.688,3.18128c.07719.04565.15023.08987.2244.13212a.06253.06253,0,0,1,.03753.0605c.01026.6376.02253,1.27516.03214,1.91276.00076.05048.01318.06573.065.06541.41959-.00262.83919-.00261,1.25878-.00271q2.43935-.00059,4.87869-.001c.1178,0,.106.01767.10711-.10809.00041-.04392.02785-.10277-.05566-.11794.059-.00944.05371-.04627.05376-.08451a2.43566,2.43566,0,0,0-.04707-.41574C8.23832,4.5968,8.234,4.57145,8.19816,4.568c-.01836-.00177-.03208-.01969-.00961-.0346.05324-.03533.00071-.06735-.00189-.10022-.00245-.03087-.02565-.03934-.05648-.039-.0932.00092-.1865-.00374-.27964-.00132-.04864.00126-.065-.01352-.06366-.06345.00573-.21806.008-.43622.01114-.65435a.14013.14013,0,0,1,.0184-.06326c.071-.139.1422-.278.21011-.41857a.0727.0727,0,0,1,.05306-.04614h.00327l.02684.2202a.22241.22241,0,0,0-.04854.0637.64411.64411,0,0,0-.08728.49788.43756.43756,0,0,0,.37983.40288,1.41075,1.41075,0,0,0,.16255.00891l.0001-.00292c.03625,0,.07252.00075.10875-.00012a.47225.47225,0,0,0,.49881-.45085A.67417.67417,0,0,0,8.971,3.37261Zm-7.07814-.1701c-.01954-.0107-.0389-.02213-.05863-.03122l.1107-.01056.0005.01111C1.95118,3.22975,1.94556,3.23136,1.89288,3.20251Zm.98544-.22389c.03689,0,.07381.00088.11067-.00032.02326-.00077.0353.00684.033.03155-.00155.01639.00765.03773-.00552.048-.01459.01143-.03093-.00572-.04515-.01246-.03294-.01564-.0647-.03376-.097-.05086ZM2.84346,3.075c.01862.01365.05.023.0696.0368.02579.01819.05406.03287.08124.04909.01275.00762.02878.014.02912.03114.00107.05192.00039.10387.00039.16469-.06714-.07744-.13037-.14575-.188-.21846a.19627.19627,0,0,0-.064-.05642Zm-.66192.06313.16087-.01534a.13752.13752,0,0,0-.02415.02542c-.04172.05967-.08435.1187-.12659.178a1.01767,1.01767,0,0,1-.00982-.16733Zm.00566.622a.49382.49382,0,0,1,.11427-.36794c.07117-.08576.13-.18179.19383-.27358l.00883-.01121.13465-.01284c0,.0139.017.02418.02624.03486q.167.192.33526.38284A.10113.10113,0,0,1,3.03344,3.58q.00906.54252.02116,1.085c.00093.04029-.01311.04952-.05112.04976-.24613.0015-.49229.00391-.73835.00962-.05167.0012-.061-.01709-.06139-.06388C2.2011,4.36027,2.2039,4.05963,2.1872,3.76012Zm.83806,1.49041a2.125,2.125,0,0,1-.54495.0269c-.07578-.008-.152-.01174-.22765-.02252-.028-.004-.03822-.01615-.03875-.04291q-.00316-.162-.00811-.32387c-.00079-.025.00558-.03756.03356-.03784q.3857-.00384.77136-.00976c.03593-.00058.04432.01586.04359.04718-.00122.05213-.00034.10431-.00034.15647l.00884,0c0,.0521-.00115.10423.00046.15628C3.06417,5.22923,3.056,5.24588,3.02526,5.25053Zm2.9361-2.17318c.10157.00056.20314.00025.30471.00025l.00547.01663-.33989.32584c0-.11326.00021-.21314-.00016-.313C5.93141,3.086,5.93992,3.07724,5.96136,3.07735ZM3.36647,3.03492c.00751-.037.04735-.01827.0723-.01889.07022-.00173.07052,0,.03487.06173-.03947.0684-.07948.13649-.11925.20471A.67887.67887,0,0,1,3.36647,3.03492Zm2.386,1.9888c-.001.07267-.00488.1453-.00583.218-.00042.03284-.01317.04561-.047.04553q-.47278-.00106-.94558.00046c-.0401.00014-.04582-.016-.0397-.0515a4.28487,4.28487,0,0,0,.06193-1.10194A1.21422,1.21422,0,0,0,4.6197,3.5861a.43642.43642,0,0,0-.66854-.08458.7404.7404,0,0,0-.17524.32632,2.6109,2.6109,0,0,0-.06375.83229,4.80511,4.80511,0,0,0,.05879.56126c.006.03547-.00265.05151-.04274.04988q-.14529-.00593-.29083-.00527c-.03649.00016-.04809-.01266-.04893-.0484-.00616-.26094-.014-.52184-.02126-.78276l.00155,0q-.00973-.383-.01984-.766A.11953.11953,0,0,1,3.371,3.59041q.192-.26478.38174-.53123a.07362.07362,0,0,1,.07-.034q.604.0144,1.208.02666a.1228.1228,0,0,1,.07932.03509q.31308.2617.6261.52348a.08709.08709,0,0,1,.03436.0764C5.76367,4.1324,5.75854,4.57807,5.75252,5.02372ZM5.74213,3.3873c-.12178-.10308-.24217-.2078-.36805-.31619.13017,0,.25042.00016.37067-.00012.026-.00006.02968.01561.02966.03656-.00009.08561.00051.17122.00058.25683C5.775,3.38725,5.77179,3.4124,5.74213,3.3873ZM7.54125,5.17774c-.00041.03474-.01431.04307-.04582.04687-.14081.017-.2825.01908-.42378.02679-.36477.01991-.73.02675-1.09524.03288-.076.00128-.07632.001-.07637-.077Q5.8998,4.82715,5.9,4.447l.01882,0c0-.25533.00033-.51066-.00043-.766A.08944.08944,0,0,1,5.95,3.60822q.26544-.24385.52819-.49063A.09074.09074,0,0,1,6.548,3.09115c.10994.003.21991.00515.32988.00576a.11175.11175,0,0,1,.07561.02937q.28766.24389.57653.48631a.07731.07731,0,0,1,.03126.06661Q7.55026,4.42845,7.54125,5.17774ZM7.5658,3.39936c-.12475-.0917-.23026-.18755-.34282-.28466.10953,0,.20932.00035.30912-.00022.02752-.00016.03421.014.034.03842C7.56533,3.23066,7.5658,3.30844,7.5658,3.39936Zm.36266,1.7264c-.02924-.00215-.05844-.005-.08758-.00824-.01713-.00192-.04226.00383-.04182-.02328.0005-.03089.02827-.013.04016-.02.0334.00636.06382.01187.09409.01807a.0166.0166,0,0,1,.01535.01922A.01691.01691,0,0,1,7.92846,5.12576Zm.28971-.00326c.00008.0311-.03239.01245-.04645.0219-.02127-.00788-.05452.007-.05433-.02655.00016-.02988.02992-.02055.0483-.02022C8.18636,5.098,8.2181,5.09119,8.21817,5.1225Zm-.09975-.58743c.01568-.00078.03585-.00328.03614.02121.00029.02443-.021.01991-.03187.02313-.019.00095-.03547.002-.0374-.01811C8.083,4.53775,8.10221,4.53589,8.11842,4.53507Zm-.03306.58162c.00108.02564-.02012.0237-.03628.02092-.02439-.00419-.05994-.0007-.05952-.036.0003-.0255.0295-.01276.04509-.01636C8.05807,5.08679,8.084,5.085,8.08536,5.11669Zm-.06392-.57981c.01658.003.04112-.00522.042.02241.00089.02887-.02505.02707-.04381.02968-.019.00264-.03873.00069-.03813-.02588C7.98208,4.53645,8.00337,4.53867,8.02144,4.53688Zm-.19974.015c.037-.00383.074-.00723.111-.01054.01389-.00125.02027.00708.02189.01957.00225.01734-.00422.02961-.02261.03191-.02584.00325-.05182.00542-.071.00737-.01614,0-.02546.00022-.03477-.00006-.016-.00047-.03122-.0036-.03055-.02388A.02533.02533,0,0,1,7.8217,4.55192Zm.37606-1.27128-.01628-.13359h.48758a.13155.13155,0,0,0,.05439,0h.0957l-.03183.15409-.0034-.01329a.0912.0912,0,0,0-.08414-.07662.83963.83963,0,0,0-.29343-.01183C8.33121,3.20986,8.24047,3.20505,8.19776,3.28064Zm.64327.63315a.0966.0966,0,0,1-.062.06765.17549.17549,0,0,1-.04366.008c-.00067.00666,0,.10863,0,.16695H8.24886c-.00033-.05965,0-.11564,0-.17329.01166-.101.02966-.2386.042-.34823a.12518.12518,0,0,1-.07431-.1123.13127.13127,0,0,1,.13529-.126.13357.13357,0,0,1,.04.006.10909.10909,0,0,1,.09131-.05931h.001a.12634.12634,0,0,1,.08831.05165c.00633.00633.006.00533.007.00533a.11626.11626,0,0,0,.03766-.02566h.01133a.10593.10593,0,0,1,.08231.04265.15111.15111,0,0,1,.03066.09364.15265.15265,0,0,1-.00433.03733.1389.1389,0,0,1,.04065-.00967A.05144.05144,0,0,1,8.792,3.5389a.05915.05915,0,0,1,.04866.039A.64118.64118,0,0,1,8.841,3.91379Z"/>
            <path d="M8.62842,3.6472a.09924.09924,0,0,1-.063-.02333.10338.10338,0,0,1-.08231.046.1.1,0,0,1-.073-.034.14135.14135,0,0,1-.05832.01266h-.002l-.03732.33457h.35923l-.03732-.33623Z"/>
            <path d="M8.63742,3.43559a.098.098,0,0,1-.055.02466.07306.07306,0,0,1-.05165-.022c-.02132-.02066-.027-.034-.048-.035-.01566.00033-.03565.01433-.04831.048l-.012.03233-.03032-.01666a.08434.08434,0,0,0-.04033-.01033.06656.06656,0,1,0,0,.132.08184.08184,0,0,0,.04832-.01533l.02633-.01966.01733.028a.04813.04813,0,0,0,.03932.02833c.01566,0,.036-.01433.049-.04866l.023-.06165.03132.05766a.04949.04949,0,0,0,.042.03.04516.04516,0,0,0,.035-.01967.09815.09815,0,0,0,0-.1133A.05175.05175,0,0,0,8.63742,3.43559Z"/>
            <rect x="8.30885" y="4.04309" width="0.36656" height="0.05332"/>
            <path d="M8.6944,3.64253l.032.28692a.12536.12536,0,0,0,.03333-.005A.02873.02873,0,0,0,8.783,3.89913a.59571.59571,0,0,0,.001-.30058A.19394.19394,0,0,0,8.6944,3.64253Z"/>
          </g>
        </g>
        <path d="M1.49591,5.88151h.2962V6.728a3.57565,3.57565,0,0,0,.67967-.313V5.88151h.67038v.21988a1.43282,1.43282,0,0,0,.46657.21184c.07008.01987.14144.03409.2131.04691V5.88151h.60754v.66986l.03388-.02207A2.625,2.625,0,0,0,4.80011,6.261a.1103.1103,0,0,1,.17555-.00982c.0436.03365.08822.06538.13337.09609V5.88151h.67039v.81874q.10218.04256.20595.082c.15608.059.3142.11.47372.15557V5.88151h.66029v.26635c.07026-.02321.14-.04851.20886-.07775a1.15819,1.15819,0,0,0,.31356-.1855.10257.10257,0,0,1,.14955-.00132l.0077.00706V5.88151h.32912a.23783.23783,0,1,0,0-.47565H1.49591a.23783.23783,0,0,0,0,.47565Z"/>
        <g>
          <path d="M9.09184,7.68686a11.07874,11.07874,0,0,1-1.8223-.12916,6.9876,6.9876,0,0,1-1.69725-.47741,3.64774,3.64774,0,0,1-.696-.38493.04448.04448,0,0,0-.06477.00144,4.01091,4.01091,0,0,1-1.13522.66863,6.82331,6.82331,0,0,1-.94044.30044,8.71888,8.71888,0,0,1-1.0317.187c-.04754.00579-.09539.00971-.14322.0121a.1023.1023,0,0,1-.11949-.09334.10706.10706,0,0,1,.106-.11418c.11691-.01237.23362-.02589.34992-.04342.234-.03527.46585-.08038.69661-.13293a6.98256,6.98256,0,0,0,.79679-.234A4.45951,4.45951,0,0,0,4.40642,6.7445a2.62415,2.62415,0,0,0,.33686-.26833.1103.1103,0,0,1,.17555-.00982,3.84226,3.84226,0,0,0,1.00971.5311,7.19438,7.19438,0,0,0,1.471.36817c.142.02154.2848.03852.42766.05347a11.75036,11.75036,0,0,0,1.86919.0374c.04848-.00265.098-.00666.13168.03767a.10548.10548,0,0,1-.08218.17066C9.495,7.68067,9.24375,7.68551,9.09184,7.68686Z"/>
          <path d="M7.27762,8.77927a8.75055,8.75055,0,0,1-1.47326-.12982,5.56283,5.56283,0,0,1-.87513-.22866,3.09061,3.09061,0,0,1-.89446-.46841.1068.1068,0,0,0-.14772-.011,4.19058,4.19058,0,0,1-.9735.41872,7.82477,7.82477,0,0,1-1.15988.25329q-.416.06016-.8353.089C.65016,8.72122.3818,8.731.113,8.72777a.10431.10431,0,0,1-.10916-.076A.10676.10676,0,0,1,.04725,8.537.09637.09637,0,0,1,.1088,8.51957c.29942.00157.59817-.01334.89666-.03575.28509-.0214.5684-.05653.85066-.102a6.58746,6.58746,0,0,0,1.45257-.38576,3.38428,3.38428,0,0,0,.5898-.30755.11252.11252,0,0,1,.16657.01432,2.38394,2.38394,0,0,0,.6729.41217,5.2242,5.2242,0,0,0,1.26267.35307c.21062.03415.42235.06263.63448.07722.27062.01862.54223.03156.814.02525.02033-.00047.0407-.00071.061,0a.10213.10213,0,0,1,.10205.10271.101.101,0,0,1-.09921.10552C7.43458,8.78076,7.35608,8.77927,7.27762,8.77927Z"/>
          <path d="M10.40637,7.2478a6.48891,6.48891,0,0,1-1.08064-.153,4.82074,4.82074,0,0,1-.89261-.29162A2.91256,2.91256,0,0,1,7.689,6.34044a.04633.04633,0,0,0-.06724-.00437,2.28679,2.28679,0,0,1-.66834.27855,4.84913,4.84913,0,0,1-.93663.14373c-.06972.00435-.10248-.01365-.12157-.06162a.10536.10536,0,0,1,.09912-.14665c.07515-.00716.15058-.01142.22567-.01909a3.59124,3.59124,0,0,0,1.05143-.24568,1.15814,1.15814,0,0,0,.31357-.1855.10256.10256,0,0,1,.14954-.00132,3.22066,3.22066,0,0,0,1.42836.73607,6.26461,6.26461,0,0,0,1.34862.20933.09916.09916,0,0,1,.10334.07631.10074.10074,0,0,1-.04219.11433.1069.1069,0,0,1-.06619.01759C10.47308,7.25143,10.43973,7.24931,10.40637,7.2478Z"/>
          <path d="M.24251,7.43283a.74.74,0,0,1-.17275-.00894c-.04193-.006-.072-.06393-.06834-.10876A.09845.09845,0,0,1,.092,7.22428C.157,7.21894.22258,7.22.28784,7.21665a5.26241,5.26241,0,0,0,1.3801-.25016,3.38835,3.38835,0,0,0,1.01155-.51521q.10556-.08055.203-.171a.10484.10484,0,0,1,.14911-.00579,1.35151,1.35151,0,0,0,.52032.254,2.51053,2.51053,0,0,0,.25969.05514.10845.10845,0,0,1,.08513.115.1049.1049,0,0,1-.11434.09069,1.89532,1.89532,0,0,1-.78949-.2805.03774.03774,0,0,0-.05542.00323,3.59691,3.59691,0,0,1-1.38211.71252,5.20665,5.20665,0,0,1-1.05235.189Z"/>
        </g>
      </g>
    </g>
  </g>
</svg>
