<svg xmlns="http://www.w3.org/2000/svg" width="13.55418" height="5.93064" viewBox="0 0 13.55418 5.93064">
  <g id="Calque_2" data-name="Calque 2">
    <g id="Calque_1-2" data-name="Calque 1">
      <g>
        <path d="M12.65689,5.02992c.56146-.2376.90477-.52438.89716-.89958a1.1978,1.1978,0,0,0-.39462-.72092,1.37765,1.37765,0,0,0-.42807-.35134.68461.68461,0,0,0,.05865.07758.83042.83042,0,0,1,.20726.3755,1.14928,1.14928,0,0,1-.39862,1.06169,3.84365,3.84365,0,0,1-.91749.75273A4.58943,4.58943,0,0,0,12.65689,5.02992Z"/>
        <path d="M1.009,2.05137c0-.05467-.00615-.10941-.00995-.16414h0l.04855-.13257,0,0c.02124-.039.04014-.07839.06413-.117a1.50375,1.50375,0,0,1,.56067-.514c.1241-.06863.3348-.10141.37031-.2067L2.105.89438A.74509.74509,0,0,0,2.421.7496,1.59324,1.59324,0,0,1,2.79136.61093.18755.18755,0,0,1,2.91074.56776a1.66733,1.66733,0,0,0,.47154-.1231c.07435-.02393.093-.07585.19627-.08119l.1317-.04c.11033.02214.131-.0464.21828-.04752.0326-.01439.10247-.01374.09054-.0506A8.1511,8.1511,0,0,0,2.82625.29522,2.85227,2.85227,0,0,0,1.29543.84776a1.24357,1.24357,0,0,0-.38049.74413l.02071.08364.00316.2058c-.03076.06814.00123.13649.00743.20475C1.032,2.102,1.009,2.06828,1.009,2.05137Z"/>
        <path d="M2.1899,5.045c-.31645-.156-.59844-.32506-.87562-.497A3.24653,3.24653,0,0,1,.127,3.45516c-.017-.03162-.01247-.069-.07586-.09324-.03539.01211-.02754.029-.03128.04414a.98353.98353,0,0,0,.24895.81951A3.91938,3.91938,0,0,0,1.77951,5.32735,4.44561,4.44561,0,0,0,4.68,5.4635c-.09569-.00021-.13385-.00152-.17147-.00019A4.81754,4.81754,0,0,1,2.1899,5.045Z"/>
        <path d="M11.03664,4.84919c.54685-.24269.97-.51939,1.05277-.89364a1.46012,1.46012,0,0,0,.005-.51935c-.08662-.63346-.94823-1.1788-2.19122-1.38792-.082-.01379-.16594-.02467-.249-.03691,1.84422-.14813,3.00032.27515,3.73016,1.05494a.05419.05419,0,0,0-.00619-.04721,3.73254,3.73254,0,0,0-.7698-.81631,6.753,6.753,0,0,0-1.49142-.79435A7.29479,7.29479,0,0,0,9.78242.97518a10.86346,10.86346,0,0,0-2.67835-.192C7.048.78515,6.97585.80211,6.93862.77314c-.03819-.0297.02876-.05135.06077-.07288A4.7028,4.7028,0,0,1,9.22491.04751c.14533-.01225.29324-.01829.43995-.0272A.13271.13271,0,0,0,9.59029.00024,15.27028,15.27028,0,0,0,7.35037.13713C6.99165.18865,6.65487.26366,6.30894.329c-.16276.036-.35481.0346-.507.08272a4.33106,4.33106,0,0,0-.9897.374.3732.3732,0,0,1-.085.03246,2.186,2.186,0,0,0-.87975.52269c.03685-.05427.10365-.10882.02225-.16911l-.02822-.00911a4.189,4.189,0,0,1,.4267-.44109l0,0a4.05485,4.05485,0,0,1,.8903-.44008c.03465.00148.05684-.00557.06578-.02167C5.23327.2535,5.25792.24863,5.2359.23941a.09257.09257,0,0,0-.0345.00468C4.76563.371,4.3503.51181,3.94683.66065l-.37251.1915c-.07683.02929-.15611.05717-.24058.082-.05365.01965-.05759.05026-.072.07857l-.21991.15271a.08.08,0,0,0-.02106.0146c-.8074.54412-1.2904,1.13759-1.13276,1.83039a.77536.77536,0,0,1-.30015-.775.90465.90465,0,0,0-.16166.28705,1.18807,1.18807,0,0,0,.0942.91251,2.11184,2.11184,0,0,0,1.05547.92691c.15827.07157.34463.12483.50565.19523a4.48417,4.48417,0,0,1-1.91029-.61193,3.596,3.596,0,0,0,.70221.50949,8.65822,8.65822,0,0,0,2.80183.90211A7.19764,7.19764,0,0,0,7.135,5.35908c.23931-.044.47668-.08953.70833-.14172A11.22338,11.22338,0,0,1,4.37806,5.882a1.01921,1.01921,0,0,0,.10307.02068A22.14267,22.14267,0,0,0,7.0042,5.88674c.37724-.02938.73506-.09022,1.10178-.13663a6.61345,6.61345,0,0,0,1.30527-.41062,2.35537,2.35537,0,0,0,.55412-.26936,1.83612,1.83612,0,0,0,.83565-.9788,1.01021,1.01021,0,0,0-.11451-.81717,2.15836,2.15836,0,0,0,.24188.30829.95542.95542,0,0,1,.2569.4577c.03247.34883-.22108.64644-.67012.90836-.06428.03749-.11958.073-.10832.12452a.14659.14659,0,0,0,.10385-.01528C10.68677,4.98864,10.87,4.92316,11.03664,4.84919Zm-4.695-3.502A4.12926,4.12926,0,0,0,3.99828,2.322c-.0374-.45542.60439-1.04424,1.95334-1.242A4.93694,4.93694,0,0,1,9.483,1.64541,6.86767,6.86767,0,0,0,6.34169,1.34722Zm-.41543.885c-1.01432.22032-1.55867.58286-1.46841,1.14807a.4279.4279,0,0,1-.04335-.73066A2.2772,2.2772,0,0,1,5.92626,2.23223Zm.94867.74132c.27254.19467.16918.4545-.23087.58034a1.563,1.563,0,0,1-1.21783-.12463c-.27254-.19467-.16917-.4545.23088-.58034A1.563,1.563,0,0,1,6.87493,2.97355Zm.221-.37058A1.21433,1.21433,0,0,1,7.95,2.96822c.14783.17922.10742.35641-.14723.51791C7.9225,3.129,7.73609,2.82818,7.09588,2.603Zm-.0683,1.428a1.6789,1.6789,0,0,1-.90388.21918,1.7323,1.7323,0,0,1-1.0299-.26082A3.5961,3.5961,0,0,0,7.02758,4.031ZM5.55619,4.9319a4.20881,4.20881,0,0,1-2.3146-.49873C2.64471,4.09008,2.48623,3.692,2.55582,3.266a.17773.17773,0,0,1,.04292-.09012,4.604,4.604,0,0,0,.53045.65059,3.54336,3.54336,0,0,0,2.26563.86185,4.5272,4.5272,0,0,0,1.21012-.09456c.11959-.02311.24058-.04463.36822-.05949A2.79022,2.79022,0,0,1,5.55619,4.9319Zm3.22573-.68a4.63407,4.63407,0,0,1-1.01379.2745c.01392-.048.078-.06516.1224-.08824a3.11879,3.11879,0,0,0,1.04655-.72652c.26715-.3592.14075-.70056-.27065-1.02649a4.864,4.864,0,0,0-.99608-.5966A.19472.19472,0,0,1,7.55467,1.999c1.08165.23888,1.91031.56879,2.124,1.14467C9.84688,3.597,9.50342,3.96688,8.78192,4.25185Z"/>
      </g>
    </g>
  </g>
</svg>
